<svg id="ikon" xmlns="http://www.w3.org/2000/svg" viewBox="0 0 30 25"><defs><style>.cls-1{fill:#3e3e3e;}.cls-1,.cls-2,.cls-3{fill-rule:evenodd;}.cls-2{fill:#fff;}.cls-3{fill:#469993;}</style></defs><title>kapcsolat</title><path id="vonal" class="cls-1" d="M29.78,16.64A9.77,9.77,0,0,0,20.49,3a7.91,7.91,0,0,0-.85.06,9.75,9.75,0,0,0-6,3,9.86,9.86,0,0,0-2.49,5l-.49-.08A8.31,8.31,0,0,0,2,22.57L1,27.4A.49.49,0,0,0,1.4,28a.39.39,0,0,0,.24,0l4.29-1.24A8.3,8.3,0,0,0,17.55,22a9.77,9.77,0,0,0,7.68-.51L30.36,23a.5.5,0,0,0,.62-.34.49.49,0,0,0,0-.24Zm-14.3,7.15a7.31,7.31,0,0,1-9.26,2,.51.51,0,0,0-.4,0h0l-3.62,1L3,22.66a.34.34,0,0,0,0-.14.45.45,0,0,0,0-.2,7.31,7.31,0,0,1,2.63-9.1A7.23,7.23,0,0,1,9.9,12a7.32,7.32,0,0,1,5.58,11.79Zm9.91-3.28-.06,0-.16,0a.46.46,0,0,0-.23.06,8.72,8.72,0,0,1-7.12.51,8.35,8.35,0,0,0-1-6v0c-.22-.32-.56-.77-.72-1L16,13.9l-.22-.25a8.26,8.26,0,0,0-3.65-2.28,8.78,8.78,0,1,1,16.68,5,.5.5,0,0,0,0,.32v0l1.06,5.05Z" transform="translate(-1 -3)"/><g id="kozep"><path class="cls-2" d="M15.48,23.79a7.31,7.31,0,0,1-9.26,2,.51.51,0,0,0-.4,0h0l-3.62,1L3,22.66a.34.34,0,0,0,0-.14.45.45,0,0,0,0-.2,7.31,7.31,0,0,1,2.63-9.1A7.23,7.23,0,0,1,9.9,12a7.32,7.32,0,0,1,5.58,11.79Z" transform="translate(-1 -3)"/><path class="cls-2" d="M29.84,21.79l-4.45-1.28-.06,0-.16,0a.46.46,0,0,0-.23.06,8.72,8.72,0,0,1-7.12.51,8.35,8.35,0,0,0-1-6v0c-.22-.32-.56-.77-.72-1L16,13.9l-.22-.25a8.26,8.26,0,0,0-3.65-2.28,8.78,8.78,0,1,1,16.68,5,.5.5,0,0,0,0,.32v0Z" transform="translate(-1 -3)"/></g><g id="szoveg"><path class="cls-3" d="M15,16.51a.5.5,0,0,1-.51.49h-9a.5.5,0,1,1,0-1h9.05A.5.5,0,0,1,15,16.51Z" transform="translate(-1 -3)"/><path class="cls-3" d="M15,19.51a.5.5,0,0,1-.51.49h-9a.5.5,0,1,1,0-1h9.05A.5.5,0,0,1,15,19.51Z" transform="translate(-1 -3)"/><path class="cls-3" d="M10,22.51A.51.51,0,0,1,9.5,23h-4a.5.5,0,1,1,0-1H9.51A.5.5,0,0,1,10,22.51Z" transform="translate(-1 -3)"/><path class="cls-3" d="M27,8.51a.52.52,0,0,1-.51.49h-11a.5.5,0,1,1,0-1h11A.5.5,0,0,1,27,8.51Z" transform="translate(-1 -3)"/><path class="cls-3" d="M27,11.51a.52.52,0,0,1-.51.49h-11a.5.5,0,1,1,0-1h11A.5.5,0,0,1,27,11.51Z" transform="translate(-1 -3)"/><path class="cls-3" d="M22.2,17.51a.5.5,0,0,1-.5.49H19.29a.5.5,0,0,1-.05-1h2.47A.49.49,0,0,1,22.2,17.51Z" transform="translate(-1 -3)"/><path class="cls-3" d="M27,14.51a.5.5,0,0,1-.51.49h-9.7c-.22-.32-.56-.77-.72-1H26.51A.5.5,0,0,1,27,14.51Z" transform="translate(-1 -3)"/></g></svg>