<svg xmlns="http://www.w3.org/2000/svg" enable-background="new 0 0 32 32" viewBox="0 0 32 32"><path d="M16.04,12.456l-0.036,0.036l-0.037-0.036c-1.271-1.27-3.338-1.27-4.608,0c-0.615,0.615-0.955,1.434-0.955,2.305   c0,0.87,0.339,1.688,0.955,2.304l4.292,4.291c0.094,0.094,0.221,0.146,0.354,0.146s0.26-0.053,0.354-0.146l4.291-4.291   c0.615-0.615,0.955-1.434,0.955-2.304c0-0.871-0.339-1.689-0.955-2.305C19.378,11.187,17.311,11.187,16.04,12.456z M19.941,16.357   l-0.39,0.39l-3.547,3.548l-3.938-3.938c-0.426-0.427-0.662-0.994-0.662-1.597c0-0.604,0.235-1.171,0.662-1.598   c0.44-0.44,1.019-0.66,1.597-0.66c0.579,0,1.157,0.22,1.597,0.66l0.39,0.391c0.188,0.188,0.521,0.188,0.708,0l0.389-0.391   c0.881-0.881,2.313-0.881,3.194,0S20.822,15.477,19.941,16.357z"/><path d="M25.996,8.825c0-0.429-0.184-0.837-0.504-1.119c-0.323-0.284-0.753-0.415-1.183-0.361c-2.74,0.342-5.358-0.575-7.296-2.435   c-0.57-0.548-1.463-0.549-2.034-0.001c-1.938,1.86-4.558,2.777-7.295,2.436C7.26,7.292,6.824,7.421,6.5,7.706   c-0.32,0.282-0.504,0.69-0.504,1.12l0.008,9.076c0,2.97,1.732,5.713,4.413,6.987l5.38,2.56c0.068,0.032,0.142,0.049,0.215,0.049   c0.074,0,0.147-0.017,0.215-0.049l5.367-2.559c2.679-1.275,4.41-4.018,4.41-6.984L25.996,8.825z M21.164,23.988l-5.152,2.456   l-5.165-2.457c-2.334-1.11-3.843-3.499-3.843-6.085L6.996,8.825c0-0.144,0.059-0.274,0.166-0.369   c0.092-0.081,0.207-0.123,0.329-0.123c0.022,0,0.045,0.001,0.068,0.004c3.042,0.385,5.958-0.64,8.113-2.706   c0.179-0.17,0.471-0.171,0.649,0.001c2.155,2.065,5.068,3.089,8.114,2.705c0.152-0.018,0.288,0.024,0.396,0.119   c0.107,0.094,0.166,0.226,0.166,0.37l0.008,9.08C25.004,20.489,23.497,22.877,21.164,23.988z"/></svg>