<svg xmlns="http://www.w3.org/2000/svg" viewBox="0 0 64 64"><path d="M32 60c-.3 0-.5-.2-.5-.5v-15c0-.3.2-.5.5-.5s.5.2.5.5v15c0 .3-.2.5-.5.5zm0-43c-3.6 0-6.5-2.9-6.5-6.5S28.4 4 32 4s6.5 2.9 6.5 6.5S35.6 17 32 17zm0-12c-3 0-5.5 2.5-5.5 5.5S29 16 32 16s5.5-2.5 5.5-5.5S35 5 32 5z"/><path d="M34.6 60h-5.2c-1.3 0-2.4-1-2.5-2.4l-.8-14.2c0-.8-.7-1.5-1.6-1.5-1.4 0-2.6-1.1-2.6-2.6V23.5c0-2.5 2-4.5 4.5-4.5h11c2.5 0 4.5 2 4.5 4.5v15.9c0 1.4-1.1 2.6-2.6 2.6-.8 0-1.5.6-1.6 1.5l-.8 14.2c.1 1.3-1 2.3-2.3 2.3zm-8.1-40c-1.9 0-3.5 1.6-3.5 3.5v15.9c0 .9.7 1.6 1.6 1.6 1.4 0 2.5 1.1 2.6 2.4l.8 14.2c0 .8.7 1.4 1.5 1.4h5.2c.8 0 1.5-.6 1.5-1.4l.8-14.2c.1-1.4 1.2-2.4 2.6-2.4.9 0 1.6-.7 1.6-1.6V23.5c0-1.9-1.6-3.5-3.5-3.5H26.5z"/><path d="M32 31.1c-.2 0-.4-.2-.5-.4l-2.8-11.1c0-.1 0-.3.1-.4.1-.1.2-.2.4-.2h5.6c.2 0 .3.1.4.2.1.1.1.3.1.4l-2.8 11.1c-.1.2-.3.4-.5.4zM29.8 20l2.2 8.6 2.2-8.6h-4.4zM14 60c-.3 0-.5-.2-.5-.5v-12c0-.3.2-.5.5-.5s.5.2.5.5v12c0 .3-.2.5-.5.5zm0-38c-3.3 0-6-2.7-6-6s2.7-6 6-6 6 2.7 6 6-2.7 6-6 6zm0-11c-2.8 0-5 2.2-5 5s2.2 5 5 5 5-2.2 5-5-2.2-5-5-5z"/><path d="M16.6 60h-5.2c-1.3 0-2.4-1-2.5-2.3L8.1 45c0-.6-.5-1-1-1-1.1 0-2-.9-2-2V28.5C5 26 7 24 9.5 24h9c.8 0 1.6.2 2.3.6.2.1.3.4.2.7-.1.2-.4.3-.7.2-.5-.3-1.1-.5-1.8-.5h-9C7.6 25 6 26.6 6 28.5V42c0 .6.5 1 1 1 1.1 0 2 .8 2 1.9l.8 12.7c0 .8.7 1.4 1.5 1.4h5.2c.8 0 1.4-.6 1.5-1.4l.8-12.7c.1-.8.6-1.6 1.4-1.8.3-.1.5-.1.8-.1.3 0 .5.2.5.5s-.3.5-.5.5h-.3c-.4.1-.7.5-.7.9l-.8 12.7C19 59 17.9 60 16.6 60z"/><path d="M14 34c-.2 0-.4-.1-.5-.4l-2.5-9c0-.2 0-.3.1-.4.1-.1.2-.2.4-.2h5c.2 0 .3.1.4.2.1.1.1.3.1.4l-2.5 9c-.1.3-.3.4-.5.4zm-1.8-9l1.8 6.6 1.8-6.6h-3.6zM50 60c-.3 0-.5-.2-.5-.5v-12c0-.3.2-.5.5-.5s.5.2.5.5v12c0 .3-.2.5-.5.5zm0-38c-3.3 0-6-2.7-6-6s2.7-6 6-6 6 2.7 6 6-2.7 6-6 6zm0-11c-2.8 0-5 2.2-5 5s2.2 5 5 5 5-2.2 5-5-2.2-5-5-5z"/><path d="M52.6 60h-5.2c-1.3 0-2.4-1-2.5-2.3L44.1 45c0-.4-.3-.8-.7-.9h-.3c-.3 0-.5-.2-.5-.5s.2-.6.4-.6.4 0 .6.1c.8.3 1.4 1 1.4 1.8l.8 12.7c0 .8.7 1.4 1.5 1.4h5.2c.8 0 1.4-.6 1.5-1.4l.8-12.7c.1-1.1 1-1.9 2-1.9.6 0 1-.5 1-1V28.5c0-1.9-1.6-3.5-3.5-3.5h-9c-.6 0-1.2.2-1.8.5-.2.1-.5.1-.7-.2-.1-.2-.1-.5.2-.7.7-.4 1.5-.6 2.3-.6h9c2.5 0 4.5 2 4.5 4.5V42c0 1.1-.9 2-2 2-.6 0-1 .4-1 1L55 57.7c0 1.3-1.1 2.3-2.4 2.3z"/><path d="M50 34c-.2 0-.4-.1-.5-.4l-2.5-9c0-.2 0-.3.1-.4.1-.1.2-.2.4-.2h5c.2 0 .3.1.4.2.1.1.1.3.1.4l-2.5 9c-.1.3-.3.4-.5.4zm-1.8-9l1.8 6.6 1.8-6.6h-3.6z"/></svg>