<svg version="1.0" xmlns="http://www.w3.org/2000/svg" width="2048" height="2048" viewBox="0 0 1536 1536"><path d="M289.8 360.5c-.2.2-3.4.6-7.2 1-3.8.3-7.3.8-7.7 1.1-.4.2-2.7.6-5 .9-2.4.3-6 1-7.9 1.5-1.9.5-3.8 1-4.2 1-1.4.1-21.2 7.2-25.8 9.2-7.8 3.4-11.5 5.3-12.2 6.3-.4.5-.8.7-.8.2 0-.9-13.8 7.6-23 14.1-18.5 13.2-38.5 34-51.5 53.7-2.2 3.3-4.3 6.1-4.7 6.3-.5.2-.8.7-.8 1.1 0 .8-8 15.1-9.7 17.3-2.5 3.4-10.5 23.4-12.8 32.3-2.7 10-3.5 23-2 31.5.3 1.9.7 4.4.9 5.5 1.1 6.4 3.8 14.7 6.7 21.1l2.2 4.6-4.4 4.3C100.5 592.2 88.8 611 87.3 626l-.5 5.5 2.3-2c1.3-1.1 2.9-2.5 3.5-3 .6-.6 2-1.6 3-2.3 1.1-.7 5.3-3.6 9.4-6.5 9-6.4 17.7-11.7 18.9-11.7.5 0 1.1-.3 1.3-.8.2-.4 2.6-1.7 5.3-3 2.8-1.3 5.8-2.8 6.8-3.3 2.3-1.2 1.7-1.8 6 6.1 3.7 6.7 8.5 19.7 9.6 26 1.3 7.6.5 20.4-1.8 27.7-1.2 4-2.7 7.5-3.2 7.8-.5.4-.9 1.3-.9 2.1 0 1.5-8.4 16.9-10.4 19-.6.6-2 2.5-3.1 4-3.9 5.5-12.1 13-16.7 15.1-11.7 5.6-24.4 3.7-28.6-4.2-.8-1.6-1.1-15-.3-15 .2 0 .4-.9.6-1.9.8-4.3 6-18.6 6.7-18.6.4 0 .8-.7.8-1.6 0-1.6 10.5-23.2 12.1-24.9 1.8-1.8.9-2.5-2.8-2.1-10.7 1.2-17.8 2.2-17.8 2.6 0 0-1.8.3-4 .5s-5.6.7-7.5 1c-1.9.3-5.3.8-7.5 1-2.2.2-5.1.6-6.5.9-1.4.3-4.7.7-7.5 1.1-2.7.3-7.9 1.1-11.5 1.6-3.6.6-7.9 1.2-9.6 1.3-1.7.2-3.6.6-4.3 1-1.2.8-16.1 30.5-16.1 32.2 0 .5-.7 2.1-1.4 3.6-2.1 4-7.2 19.2-9.1 27.3-2.1 8.5-2.8 24.4-1.4 30.4 1.5 6.7 5.3 14.2 9.1 18.2 3.6 3.6 12.8 9.9 15 10.3.7.1 1.8.4 2.3.8 1.3.8 13 3.8 16.9 4.4 12.1 1.6 31.6 2.5 31.6 1.4 0-.3 1.4-.5 3.1-.4 3.5.1 16.1-1.7 21.6-3 5.3-1.3 6.9-1.7 9.2-2.2 1.4-.3 2.9-.8 3.5-1.2.6-.3 1.7-.7 2.5-.8 9-1.4 47.4-22.3 58.8-32 1.2-1.1 3.6-3 5.4-4.4 4.5-3.5 24.5-23.5 29.4-29.4 5.4-6.6 19.7-27.6 18.8-27.6-.5 0-.3-.4.3-.8s2-2.7 3.3-5.2c1.2-2.5 2.6-5.2 3.1-6 .8-1.3 4.4-9 8.1-17.5 1.4-3.2 3.2-7.9 3.4-9 .2-.6.8-3 1.5-5.5 1.3-4.8 1.6-6.2 2.9-12.8.9-4.5.7-22.2-.3-28.2-.7-4.2-1.4-7.3-1.6-8-.1-.3-.2-.8-.2-1.1.1-.7-3.2-11.5-4.3-14.3-.8-1.7-.4-1.8 7.1-1.2 13.6 1.1 18.3 2 37.4 7.1 8.5 2.3 26.6 10.6 38.8 17.7 11.4 6.7 11.4 6.7 9.9 8.3-.7.7-3.9 4.3-7.2 8-3.3 3.7-6.9 7.7-8 8.9-1.1 1.2-4.9 5.5-8.5 9.6-3.6 4.1-7.5 8.4-8.7 9.7-3.1 3.5-14.2 15.9-16.3 18.3-1 1.1-5.3 5.9-9.6 10.7-4.4 4.7-8.7 9.5-9.7 10.7-1 1.2-4.5 5-7.7 8.6-3.2 3.6-6.8 7.6-8 9-1.2 1.4-5.2 5.9-9 10-12.3 13.5-13 14.5-14.3 17.2-.6 1.6-1.5 2.8-1.9 2.8-.5 0-.8.5-.8 1.1 0 .5-2.6 5.6-5.9 11.2-3.2 5.6-7 12.2-8.4 14.7-1.4 2.5-4.5 8.1-7 12.5s-4.4 8.2-4.2 8.4c.4.3 173.8.5 180.8.2 1-.1 2.1-.9 2.4-1.9.4-.9 1.6-3.3 2.8-5.2 1.2-1.9 3.8-6.4 5.7-10 2-3.6 8.1-14.6 13.7-24.4 5.6-9.9 9.8-18.2 9.5-18.5-.3-.3-21.8-.7-47.7-.7-26-.1-47.7-.2-48.3-.3-.7 0 .7-2.1 3-4.5 2.2-2.4 7.3-7.9 11.1-12.2 3.9-4.3 7.9-8.8 9-10 1.1-1.2 4.3-4.8 7-7.9 2.8-3.1 6.4-7.1 8-9 1.7-1.8 6.2-6.8 10-11.1 3.9-4.3 8.7-9.6 10.7-11.8 2.1-2.3 3.8-4.4 3.8-4.9 0-2.5 4.4.6 13.8 9.7 33.6 32.8 44.3 42.9 55.4 52.4l4.7 4-5.5 7.3c-3 4.1-6.1 8.1-6.7 8.9-.7.8-2.3 3.1-3.7 5-1.3 1.9-2.7 3.7-3 4-.3.3-3 3.9-6 8-2.9 4.1-5.8 7.9-6.2 8.5-.5.5-2.5 3.2-4.6 6-2 2.7-4.5 5.9-5.4 6.9-1 1.1-1.8 2.3-1.8 2.6 0 .4-1.1 2-2.5 3.6s-2.5 3.2-2.5 3.6c0 .5-.1 1.1-.2 1.5-.2.3 17.7.7 39.7.7 44.9.1 40.5.9 46.6-8 3.7-5.4 12.2-16.9 14.4-19.6 1.4-1.7 1.8-1.6 7.2 1.1 17.8 8.9 43.6 16.5 58.1 17 2.4.1 3.1.4 2.5 1.3-1.9 3-3.1 7.8-1.9 7.9 1.5.1 75.6.1 77.9 0 .9-.1 1.7-.9 1.7-1.9 0-1 .9-3.7 2-6 1.1-2.2 2-4.8 2-5.6 0-.8.4-1.7.9-2 .4-.3 1.4-2.5 2-4.8 1.2-4.2 1.6-4.5 11.4-9.2 5.6-2.7 11.3-5.7 12.7-6.6 1.4-1 2.8-1.8 3.3-1.9.4 0 3.2-1.6 6.2-3.6 3.1-1.9 5.7-3.5 6-3.5.5 0 16.5-10.9 18.6-12.6 2.5-2.2 3.3-1.6 1.5 1.1-.9 1.4-1.3 2.5-.9 2.5.5 0 .4.4-.2.8-.5.4-1.5 1.6-2.1 2.7-.6 1.1-2.4 4.2-3.9 7-6.7 11.8-9.6 17.2-11.3 20.5-.9 1.9-2 3.7-2.3 4-1.4 1.3-10 18.2-9.5 18.8.9.8 105.4.5 119.6-.3 6.3-.4 12.6-.8 14-.9 1.4 0 3-.4 3.5-.7.6-.4 1.7-.5 2.6-.4.9.2 3.8-.1 6.5-.6s6.5-1.2 8.4-1.5c4.5-.8 6.5-1.2 6.5-1.4 0-.1 1.1-.3 2.5-.5 2.3-.3 11-2.8 15-4.2.8-.4 2.2-.7 3.1-.9 2.5-.5 17.7-7.2 24.3-10.7 19.1-10 39.6-27.3 55.2-46.2 2.7-3.3 5.2-6.2 5.5-6.5.3-.3 2.5-3.2 4.9-6.5 2.4-3.3 4.7-6.2 5-6.5.4-.3.9-1 1.1-1.5.2-.6 3.8-6.2 8-12.5 4.1-6.3 7.9-12.2 8.2-13 .4-.8 1.6-2.9 2.7-4.5 1-1.7 2.5-4.1 3.3-5.5 3.6-6.7 8.2-14.8 9.9-17.5 1-1.7 2.1-3.7 2.5-4.5.4-.8 2.4-4.4 4.4-8 2-3.6 5-9 6.7-12 1.6-3 6.2-11.4 10.2-18.5 4.1-7.2 8-14.4 8.8-16 .9-1.7 2.4-4.1 3.4-5.4 1-1.3 1.5-2.7 1.2-3.2-.3-.5 0-.9.5-.9.6 0 1.1-.6 1.1-1.4 0-.7.7-1.9 1.5-2.6.8-.7 1.2-1.6.9-2.1-.3-.5-.2-.9.3-.9.4 0 2.8-3.9 5.3-8.6l4.4-8.5 3.6.6c1.9.4 4.9.9 6.5 1.2 5.3.9 25.8 8 33 11.5 13.4 6.5 13.8 6.7 12 8.4-.8.9-2.9 3.7-4.7 6.2-1.8 2.6-4 5.6-5 6.6-1 1.1-1.8 2.3-1.8 2.7 0 .4-.6 1.4-1.3 2.1-.7.7-7.6 9.8-15.2 20.3-7.7 10.4-16.1 21.9-18.8 25.5-2.7 3.6-5.5 7.4-6.3 8.5-.8 1.1-6 8.1-11.5 15.5s-10.5 14.4-11.1 15.5c-.6 1.1-1.6 2.5-2.2 3.1-.6.6-3.2 3.9-5.6 7.3-2.5 3.4-8.3 11.3-13 17.6-4.7 6.3-10.4 14-12.7 17.2-6 8.3-15 20.6-16 21.8-.5.5-2.4 3.2-4.3 6-1.9 2.7-3.8 5.2-4.1 5.5-.3.3-5.1 6.8-10.7 14.5s-10.7 14.6-11.3 15.3c-.5.7-.8 1.6-.5 2 .4.7 80.3.9 81 .1.2-.2 4-5.6 8.5-11.9 4.5-6.3 8.8-12.2 9.5-13 .7-.9 1.5-2.4 1.9-3.3.3-.9 1.1-1.7 1.7-1.7.5 0 1-.4 1-1 0-1 24.8-36.4 27.5-39.1.8-.9 1.5-2.1 1.5-2.7 0-.7.4-1.2.8-1.2s1.6-1.4 2.7-3.2c1-1.8 2.9-4.4 4.1-5.8l2.3-2.5 28.3.1c15.6.1 28.4.2 28.5.3.2.1-4.2 11.3-6.3 15.8-.8 1.7-1.4 3.4-1.4 3.8 0 .4-.6 2.1-1.4 3.8-.8 1.8-3.8 9-6.6 16.2-2.8 7.1-6 14.9-7 17.2-1.1 2.4-2 4.9-2 5.7 0 .7-1.6 2.7-3.6 4.2-2 1.6-4.8 3.9-6.3 5.1-1.4 1.3-2.9 2.3-3.3 2.3-.4 0-1.3.6-2 1.3-4.7 4.5-26.9 16.7-40.8 22.4-7.9 3.2-11.2 4.4-12 4.5-.3 0-1.4.5-2.5 1.1-1.3.8-10 1.2-25.9 1.3-20.5.1-24.1.3-25 1.6-6.8 9.7-10 13.7-10.6 13.3-.4-.3-3.2 0-6.1.6-3 .6-7 1.2-8.9 1.4-1.9.2-4.6.6-6 .9-1.3.3-4.2.8-6.5 1.1-2.2.3-6.9 1.1-10.5 1.6-8.6 1.4-9.5 1.5-16.7 2.4-6.4.8-6.7.6-5-3.5.3-.8 1.3-4 2.2-7 .9-3 2.1-6.7 2.7-8.2.5-1.5.8-3 .5-3.5-.4-.6-65.6-1-72.3-.4-.6.1-3.5 7.9-6.4 17.3-5.8 18.9-7.8 24.3-8.6 23.5-.8-.8-24.1 7.5-32.7 11.6-4 1.9-8.2 3.7-9.4 4.1-1.3.4-2.3 1.2-2.3 1.7s-.5.9-1.2.9c-1.1 0-16.9 8.9-17.8 10.1-.3.3-1.5 1.1-2.7 1.7-7 3.8-31.4 26.2-38.2 35.2-1.4 1.9-3.3 4.2-4.1 5.1-5.9 6.8-21.3 32.8-22.7 38.4-.1.5-1.6 4.8-3.3 9.5-1.8 4.7-3.3 9.2-3.5 10-3.9 16.9-4.8 23.9-4.8 36.5-.1 36.4 16.8 69.4 48 93.5 4.8 3.7 8.3 6 9.2 6 1.4 0 3.2 3.6 2.3 4.5-.4.3-.7 1-.8 1.3 0 .4-.3 1.4-.7 2.2-.3.8-1.9 6.2-3.7 12-1.7 5.8-3.5 11.6-4.1 13-.5 1.4-1.1 3.4-1.4 4.5-.2 1.1-1.8 6.3-3.5 11.5-1.8 5.2-4 12.2-5 15.5-1 3.3-2.1 6.8-2.5 7.7-.6 1.5 2.2 1.6 36.9 1.7h37.5l2.7-8.7c1.4-4.8 3.9-12.5 5.4-17.2 1.5-4.7 3.7-11.9 5-16.1l2.2-7.6 4.2.6c5.4.8 37.8.7 43.6 0l4.5-.6.3 19.1c.2 10.5.4 21.6.5 24.6l.2 5.5h74.9l-.1-6c-.1-3.3-.4-11-.7-17-.3-6.1-.8-17.1-1.1-24.5-.3-7.4-.7-14.7-.9-16.2-.2-1.4 0-3.1.3-3.6.5-.8 12.8-5.7 16.6-6.6 1-.3 4-1.4 10-3.9 1.7-.6 3.2-1.2 3.5-1.3.3 0 1.4-.4 2.5-.9 5.6-2.3 17.1-6.5 17.8-6.5.4 0 2.6-.9 4.7-1.9l4-1.9v2.1c0 1.2-.5 4-1 6.2-2.6 11.8-3 33.3-.6 45 1 4.8 5.8 15.1 9 18.9 6 7.2 7.3 8.6 8.5 8.6.6 0 1.1.4 1.1.8 0 2.4 20.5 10.7 29.3 11.8 2.3.3 6.5.9 9.2 1.2 11 1.5 44 .7 52.8-1.3 1.2-.3 3.4-.7 4.8-.9 5.8-.9 18.8-5 24.9-7.8 6.4-2.9 19.4-10.3 21.6-12.3.6-.5 2.6-2.1 4.3-3.5 10.1-7.9 21.2-21 28.8-33.7 8.3-14 20.3-39.9 20.3-43.7 0-.8.6-1.6 1.3-1.9 1.3-.4 17.6 5 19.2 6.4.5.5 1.5.9 2.2.9 1.8 0 26.2 11.9 39.8 19.4 6.1 3.3 11.3 6.1 11.7 6.1 2.2 0 3.2 2.6 2.1 5.8-1.3 3.6-3.6 12.2-3.3 12.2.1 0-.5 1.8-1.3 4-.9 2.2-2.5 7.1-3.6 11-1.1 3.8-3.8 13-6 20.4-2.2 7.4-3.8 13.8-3.5 14.2.2.5 17 .8 37.3.8h36.8l1.3-4.2c.8-2.3 1.4-4.4 1.5-4.7 1.6-6 2.7-9.8 3.2-11 .3-.8.8-2.1 1-2.8.7-2.7 1-3.9 2.3-8.5 1-3.8 1.6-4.7 2.9-4.2 3.8 1.6 10.5 3.4 10.9 3 .3-.2 1.2 0 2.1.4 5.2 2.8 34.6 4.6 45.8 2.9 3.2-.4 7.3-1.1 9.2-1.3 7.3-1.1 23.9-6.5 26.9-8.8.6-.5 1.2-.6 1.2-.1s.4.4.8-.1c.4-.6 2.5-1.9 4.7-3s4.4-2.6 4.8-3.2c.4-.7 1.3-1.3 1.9-1.3 3 0 17.7-14.1 23.1-22.3 4.1-6.2 9-15.7 8.1-15.7-.4 0-.2-.6.4-1.3 1.4-1.6 5.3-15.7 4.7-16.8-.3-.4-.1-1 .4-1.3.5-.3.7-7.2.6-15.3-.3-15.4-.5-16.9-2.5-24.3-.7-2.5-1.4-5.2-1.5-6-.2-.8-.4-1.6-.5-1.8-.2-.1-.3-.5-.4-1-.7-3.4-6.4-16.2-9.4-21.1-15-24.6-37.1-43.9-66.8-58.1l-7.1-3.4 2.8-8.8c1.5-4.9 2.7-9.1 2.8-9.3 0-.7 4.8-17.1 6.1-21.2.6-1.8 1.3-4 1.5-5 .2-1 2-7 4-13.3 1.9-6.3 3.7-12.2 4-13 3-10.4 3.6-12.7 3.9-14 .3-1.3 4.2-1.5 27.9-1.5h27.7l1.4-4.2c.8-2.3 1.2-4.4.8-4.7-.3-.3-.1-.6.4-.6s1-.8 1.1-1.8c.1-1.3 4.9-19.1 6.8-25 .3-.7.4-1.3.4-1.5-.1-.1.6-2 1.4-4.2.9-2.2 1.9-5.4 2.3-7 .4-1.7.9-3.5 1-4 .2-.6.5-1.9.6-2.9.3-1.8-1.9-1.9-91.5-1.9-58.9 0-92.1.3-92.8 1-.5.5-1.8 3.8-2.8 7.4-1.1 3.5-3.1 10.2-4.6 14.9-1.4 4.7-2.8 9.4-3 10.5-.3 1.1-1.9 6.4-3.6 11.8-1.7 5.4-2.8 10.4-2.6 11 .3.9 7.8 1.2 27.6 1.1 15.6 0 27.1.4 27.1.9s-1.4 5.4-3.1 10.9c-1.7 5.4-3.2 10.5-3.3 11.1-.1.7-1.3 4.3-2.5 8.2-1.2 3.8-2.4 7.9-2.7 9-.2 1.1-2 7.1-3.9 13.3-3.1 9.8-3.8 11.1-5.3 10.3-.9-.5-7.9-2.5-15.6-4.6-7.6-2-14.6-4-15.5-4.4-.9-.5-5-1.9-9.1-3.2-9.8-3-31.7-12.1-34.8-14.5-.2-.1.4-2.9 1.3-6.1 1-3.2 1.8-6.3 2-6.8.1-.6.5-1.7.8-2.5.5-1.2 3.5-11.4 4.3-14.3.1-.4.2-.8.4-1 .1-.1.3-.9.5-1.7.1-.8 1.1-4.2 2.1-7.5s1.9-6.2 1.9-6.5c.1-.3.5-1.2.8-2 .3-.8 1.3-4.2 2.2-7.5.9-3.3 2-7.1 2.5-8.5 1.1-3.1 5.1-16.7 5.4-18.3.2-.7.6-1.9.9-2.7 2-5.4 2.6-8.4 1.8-8.9-.7-.5-65.2-.6-70.7-.2-.7.1-2.2 3.4-3.4 7.3-1.3 4-2.9 8.9-3.6 10.8-1.3 3.4-1.4 3.3-1.2-4 .1-7.6 2.1-18.5 3.7-20.4.5-.6 1-1.4 1-1.8.4-2.7 1.6-3.9 3.2-3.5 1.4.4 1.9 0 1.9-1.6 0-1.2.5-3.9 1.1-6l1-3.7 2.5 2.9 2.5 3 5.2-3.7c2.9-2 5.4-4 5.5-4.4.2-.5.8-.8 1.3-.8.6 0 1.5-.5 2.2-1 1.3-1.2 10.2-7.6 13.7-10 1.2-.8 3.7-2.6 5.5-4 1.8-1.4 4.3-3.2 5.5-4 1.3-.8 3.5-2.5 5-3.7 1.5-1.3 3.1-2.3 3.4-2.3.3 0 3.7-2.4 7.5-5.3 3.9-2.8 10.2-7.5 14.1-10.2 10.9-7.6 15-12.9 16.5-21.6 1.7-9.2-.4-16-8.6-27.9-3.3-4.7-5.9-9-5.9-9.5 0-.6 5.2-4.2 11.6-8 6.3-3.9 13.2-8 15.2-9.3 9.7-6 13.2-7.1 21.2-6.8 4.1.2 8.7.7 10.2 1.1 2 .5 2.7.3 3.1-1.2 1.1-3.4 1.7-13.3 1-13.4-.5 0-1.7-.2-2.8-.5-11.9-2.2-22.5-2.1-27.2.3-5.3 2.7-13.5 7.4-14.7 8.5-2.8 2.3-25.9 15.8-27.2 15.8-.8 0-1.4-.6-1.4-1.4 0-3.9-3.9-2.1-20.8 10-9.7 6.9-18.8 13.4-20.2 14.5-1.4 1.1-4.3 3.2-6.5 4.7-11.4 7.7-20.4 16.1-27.4 25.6-9.3 12.6-19.9 34.2-24.1 49.1-2.8 9.8-2.9 10.9-1.9 11.5.5.3.3 1.7-.4 3-1.1 2.2-3.7 10.1-3.8 11.5 0 .2-.5 1.9-1 3.7-2.2 7.4-3.1 29.5-1.5 37.3.3 1.6.8 4.3 1.1 6 1 5.6 1.3 7 3.5 13.5 1.2 3.6 4.1 10.4 6.4 15.2l4.3 8.6-4.3 14.1c-2.4 7.8-4.6 14.6-4.9 15.2-.4.5-.8 2-1 3.2-.1 1.2-2.6 9.8-5.5 19.2-6.9 22.7-9 29.6-9.5 32-.3 1.1-.9 3.1-1.4 4.5-1.2 3-10.2 32.8-10.6 35.2-.2.9-.8 2.5-1.4 3.6-.5 1-1.2 2.9-1.4 4.3-.2 1.3-.7 3.1-1 3.9-.3.8-1.6 4.9-2.8 9-3 9.9-2.8 9.2-3.2 11.5-.4 1.9-1 2-8.8 1.6-12-.6-35.8-.6-46.6.1-6.6.4-9.1.2-8.8-.6.2-.6 2.7-8.3 5.6-17.1 2.9-8.8 5.4-16.2 5.4-16.5.1-.3.4-1.2.7-2 .4-.8 1.3-4 2.2-7 .9-3 2.1-6.4 2.6-7.5.8-1.9 23-68.9 23.5-71 .1-.6.5-1.7.8-2.5.3-.8 1.8-5.3 3.2-10 1.5-4.7 3-9.2 3.4-10 .4-.8 3.1-8.9 6-18s5.5-17.2 5.8-18c8.3-23.6 16.9-51 16-51.1-.7 0-14.8-.1-31.4-.1-16.7-.1-30.3-.5-30.3-1 0-.4.4-.8.9-.8 1 0 10.1-7.1 15.6-12.3 4.2-4 9.5-7.3 9.5-6 0 .6 36 .9 42.6.4.7-.1 2.2-2.7 3.4-5.9 1.2-3.1 2.6-6.6 3.1-7.7.4-1.1 2.2-5.8 3.9-10.5 1.8-4.7 3.7-9.9 4.3-11.5.7-1.7 1.2-3.2 1.3-3.5 0-.3.6-1.9 1.3-3.5.6-1.7 1.9-5 2.7-7.5.9-2.5 2-5.4 2.4-6.5.5-1.1 4.1-10.6 7.9-21.2 3.9-10.5 7.6-20.4 8.2-22 .7-1.5 1.4-3.7 1.6-4.8.2-1.1.8-2.4 1.3-2.9.6-.6 1-1.6 1-2.4 0-.8.6-2.8 1.4-4.5.8-1.8 3.3-8.2 5.5-14.2 2.2-6.1 4.7-12.7 5.5-14.7.9-2.1 1.7-4.1 1.7-4.5.1-.5.5-1.7.9-2.8.4-1.1 1.9-5.2 3.3-9 1.4-3.9 3.8-10.2 5.2-14 1.5-3.9 2.8-7.5 2.9-8 .2-.6.8-2.3 1.4-3.8.7-1.6 1.2-3 1.2-3.1 0-.2.8-2.1 1.7-4.2.9-2.2 1.8-4.5 1.9-5.2.2-1.1 7.7-21.5 11.9-32.2 2.2-5.8 2.8-7.5 2.9-8.2.1-.3.4-1 .9-1.4.4-.4.7-1.7.7-2.9 0-1.1.4-2.5.9-3 1-1.2 9.4-23.5 9.4-25.3 0-.6.5-1.2 1-1.2.6 0 .7-.3.4-.7-.4-.3-.3-1.1.2-1.7.4-.6 1.6-3.6 2.6-6.6 1-3 2.3-6.9 3-8.5 1.4-3.3 7.1-18.5 10.5-28.5 1.3-3.6 2.7-7 3.1-7.6.5-.6 1-1.9 1.2-3 .4-1.9 1.2-4.2 2.7-7.9 1.2-2.8 9.1-23.8 9.4-25 .2-.6.6-1.9 1-3 .5-1.1 2.3-6.1 4.1-11 1.8-5 4.9-13.3 6.9-18.5 1.9-5.2 3.7-10.2 3.8-11 .3-1.2-6.4-1.4-48.7-1.5l-49-.1-2.4 3.6c-1.4 1.9-3 4-3.5 4.6-.6.6-1.8 2.1-2.6 3.3-.8 1.3-9.4 12.9-19 26s-18.4 25.1-19.5 26.6c-1.1 1.5-2.9 3.9-4 5.4-1.2 1.4-8.4 11.1-16 21.6-7.6 10.4-14.3 19.4-14.7 20-.9 1.1-5.4 7.2-19.8 27-5.2 7.1-9.7 13.2-10 13.5-1.2 1.2-6 7.9-6 8.5 0 .3-1.1 1.7-2.4 3l-2.4 2.3-3.4-2.3c-4.4-3-17.2-9.5-18.7-9.5-.6 0-1.1-.3-1.1-.8 0-.4-1.7-1.2-3.7-1.9-2.1-.6-5.1-1.7-6.8-2.3-1.6-.6-3.1-1.1-3.3-1.1-.1.1-1.6-.6-3.2-1.4-1.7-.9-3-1.3-3-1.1 0 .3-1.8-.1-4-.9s-4.4-1.5-4.8-1.5c-2.6-.3-5.2-1.4-5.2-2.1 0-.5 1.1-2.7 2.4-4.8 4.5-7.1 16.4-30.5 20.9-41.1 21.4-50.5 16.6-74.3-17.5-87-4.9-1.8-6.7-2.2-13.8-3.6-1.4-.2-3.6-.7-5-1-2.6-.7-3.1-.7-17.5-1.9-4.9-.4-34.4-.8-65.4-.9l-56.3-.1-4 7c-2.1 3.8-4.3 7.7-4.8 8.5-.4.8-8.6 15.4-18.1 32.5-9.5 17-17.5 31.2-17.8 31.5-.3.3-2 3.2-3.7 6.5-6.3 11.9-6.9 13-7.6 13.5-.4.3-1.2 1.7-1.7 3-.6 1.4-1.5 3.2-2.1 4-.5.8-3 5.2-5.5 9.8-7.1 12.8-9.1 16.3-20.7 37-6 10.7-12 21.5-13.4 24-1.4 2.6-4.3 7.8-6.5 11.7-2.2 3.8-4.3 7.8-4.6 8.7-.3 1-.9 1.8-1.4 1.8-.5 0-.9.4-.9.9s-3 6.2-6.6 12.7c-3.7 6.6-7.8 13.9-9.2 16.4-1.4 2.5-4.5 8.1-7 12.5s-6.1 10.9-8 14.5c-1.9 3.6-4.3 7.7-5.4 9.2-1 1.4-1.8 3.3-1.8 4.2 0 .9-.3 1.6-.7 1.6-.5 0-2.1 1.3-3.8 2.8-1.6 1.5-5.2 4.5-8 6.7-2.7 2.2-5.7 4.8-6.6 5.7-.9 1-1.9 1.8-2.3 1.8-.4 0-1.7.9-2.9 2.1-1.2 1.1-6.9 5.7-12.7 10.2-5.8 4.5-11 8.6-11.7 9.2-.7.5-1.9 1.6-2.7 2.2-.8.7-2 1.3-2.6 1.3-.5 0-1 .4-1 .8 0 .7-8.6 6.9-14.8 10.7-.9.5-2.1 1.3-2.6 1.8-1 .7-2.7 1.8-10.8 6.9l-2.7 1.8 1.7-4.8c.9-2.6 2-4.9 2.5-5 .4-.2.7-1 .7-1.8s1.6-5.6 3.6-10.6c2-5.1 4.9-12.9 6.6-17.3 1.6-4.4 3.4-8.9 3.9-10 .5-1.1 3.3-8.5 6.3-16.5s6-15.9 6.7-17.5c.7-1.7 1.3-3.2 1.3-3.5.2-1 9.6-25.7 11.4-30 .6-1.4 2.5-6.6 4.3-11.5 1.8-5 3.6-9.5 4-10.1.5-.6 1-1.9 1.2-3 .2-1 1.1-3.6 2-5.8.9-2.1 1.7-4 1.7-4.2 0-.1.5-1.5 1.2-3.1.6-1.5 1.2-3.1 1.3-3.6.2-.4.4-.9.5-1.2.1-.3.3-.8.4-1.3.1-.7 1.7-4.9 4.1-10.7.7-1.7 2.3-5.7 3.5-9 1.2-3.3 2.9-7.8 3.8-10 1-2.1 1.7-4.2 1.8-4.5 0-.3.4-1.4.8-2.5.5-1.1 3.3-8.5 6.3-16.5s7-18.4 8.9-23.2c1.9-4.9 3.4-9.1 3.4-9.4 0-.3.6-2 1.4-3.7.7-1.8 1.9-4.6 2.5-6.2.6-1.7 1.6-4.4 2.2-6 .7-1.7 1.3-3.5 1.5-4 .6-2 14.5-38.1 15.4-40 .5-1.1 1.7-4 2.5-6.5 3.9-11 5.4-14.9 6.8-17.6.9-1.7 1.2-3.5.9-4-.8-1.1-96-1.3-97.8-.2-.6.4-4 4.7-7.5 9.5-7.2 10-6.9 9.6-10.9 14.3-1.6 1.9-3 4-3 4.7 0 .6-.4 1.3-.8 1.5-.5.1-4.2 4.8-8.3 10.3-4 5.5-7.6 10.2-7.9 10.5-.4.3-2.2 2.7-4.1 5.5-1.8 2.7-3.6 5.2-3.9 5.5-.3.3-2.1 2.6-4 5.3-1.9 2.6-6.9 9.2-11 14.7-4.1 5.4-12.8 17-19.3 25.8-6.4 8.7-12.4 16.7-13.2 17.8-.9 1-3.3 4.4-5.5 7.4s-4.9 6.6-6 8c-1.1 1.4-8.3 11-16 21.5-7.8 10.4-14.6 19.7-15.3 20.5-.7.8-3.7 4.9-6.7 9s-5.7 7.7-6 8c-.3.3-2.4 3-4.5 6-2.2 3-4.5 6.2-5.2 7-1 1.2-10.9 14.6-19.1 25.8-1.8 2.5-3.2 4.4-6.9 9-1.2 1.5-7.6 10.1-14.3 19.2-13.9 18.7-15.7 21.1-16.8 22.5-.4.5-2.8 3.7-5.2 7-2.4 3.3-4.7 6.1-5.2 6.3-.4.2-.8.9-.8 1.6 0 .6-.8 1.9-1.7 2.8-1 .9-2.6 2.8-3.6 4.2l-1.9 2.7-3.6-3.2c-7.2-6.2-28-25.9-46.8-44.5l-19.2-18.9 3.2-3c1.7-1.7 5.4-5.6 8.1-8.8 2.8-3.2 6.8-7.8 9-10.1 2.2-2.4 6.3-7 9.2-10.3 2.9-3.3 6.5-7.3 8-9 1.5-1.7 6-6.6 9.8-10.9 3.9-4.3 9.3-10.3 12-13.4 2.8-3.1 8.1-9 11.9-13.3 3.8-4.3 7.8-8.8 9-10 1.2-1.3 5.3-5.9 9.1-10.2 3.9-4.4 8.2-9.2 9.6-10.7 1.5-1.6 5.3-5.9 8.5-9.5 3.3-3.7 6.8-7.7 7.9-8.9 1.1-1.2 4.7-5.2 8-8.9s7.6-8.5 9.5-10.6c1.9-2 5.8-6.3 8.5-9.5 2.8-3.1 6.1-6.9 7.5-8.4 5.8-6.4 15.9-17.8 19.1-21.5 1.9-2.2 4.6-5.2 6.2-6.7 1.5-1.5 2.7-3.2 2.7-3.7s.4-1.1.8-1.3c1-.4 12.2-20.5 12.2-21.8 0-.6.3-1 .8-1 .4 0 1.2-1 1.8-2.3 2.3-4.9 5.9-11.2 6.7-11.5.4-.2.7-.8.7-1.2 0-.5 1.3-3.2 3-6 1.6-2.7 2.6-5.1 2.2-5.1-.4-.1-40-.2-88-.3l-87.3-.1-9.1 16c-5 8.8-10.2 18-11.6 20.5-1.4 2.5-4.9 8.7-7.9 13.9-3 5.2-5 9.7-4.5 10 .6.3 20.9.6 45.1.5 24.3 0 44 .3 43.9.7-.3.6-6.5 7.6-16.8 18.9-1.4 1.5-4.7 5.3-7.5 8.4-2.7 3.2-6.1 6.9-7.5 8.4-2 2.1-10.9 12.1-19.5 21.8-.5.6-4.4 4.8-8.5 9.4-4.1 4.5-8.6 9.6-10 11.3-1.4 1.6-4.3 4.9-6.5 7.2-2.2 2.4-6.1 6.7-8.7 9.7-2.6 3-6 6.8-7.5 8.4-1.5 1.7-5.9 6.6-9.8 10.9-3.8 4.4-8.3 9.4-10 11.2-1.6 1.8-5.2 5.8-8 8.9-2.7 3.1-6.6 7.4-8.5 9.5l-3.5 3.9-5-3.2c-2.7-1.8-5.2-3.5-5.5-3.8-.8-.8-4.2-2.9-7-4.2-1.4-.7-2.7-1.5-3-1.9-.9-1.1-29.7-14.9-31.2-14.9-.8 0-1.8-.3-2.2-.7-1.5-1.5-22.4-7.7-30-8.9-2.1-.3-4.8-.8-6-1-6-1.3-12.6-1.8-27.1-1.8l-16-.1-4.8-9.3c-2.7-5.1-5-10-5.2-11-.2-.9-1-3.3-1.9-5.4-3.4-7.9-4.8-19.8-3.2-26.7 1.2-5.2 4.7-14.9 6.1-16.7.8-1 1.5-2.7 1.5-3.7 0-.9.5-1.7 1-1.7.6 0 1-.5 1-1.1 0-1.4 5.5-9.4 9.4-13.8 11.7-12.9 20.2-18.2 30.1-18.7 8.6-.5 13.1 1.3 13.9 5.6.1.3.4.9.7 1.5.7 1.4-.1 7.4-1.9 13.1-1.3 4.2-8.9 20.5-13.3 28.5-5.7 10.4-5.7 10.2-.2 9.4 2.7-.3 6.8-.8 9.3-1.1 2.5-.2 7.9-.9 12-1.4 4.1-.5 9.5-1.2 12-1.4 9.8-1.1 21.8-2.6 25-3.1 1.4-.2 5.2-.7 8.4-1 3.2-.3 6.4-.7 7-.8.6-.1 1.9-1.8 3-3.7 3.7-6.9 7.3-14.5 8-16.8.4-1.2 1.1-2.2 1.5-2.2.4 0 .7-.8.8-1.8.1-.9 1.8-5.4 3.7-10 2-4.5 3.3-8.2 2.9-8.2-.3 0-.1-.6.5-1.3 1-1.2 2.7-6.8 3.6-12.2.3-1.7.8-4.1 1.1-5.5.4-1.4.8-6.6 1-11.6.4-7.3.1-10.3-1.5-14.8-5-14.8-14.7-22-34.5-26.2-3.1-.6-34.1-1.5-34.7-.9zm711.2 69.9c8 2.4 9.8 4.2 10.6 11 .4 3-5.2 20.9-6.7 21.4-.5.2-.9 1.2-.9 2.2 0 .9-.7 2.3-1.5 3-.8.7-1.4 1.8-1.3 2.4.2.6-.7 2.5-2 4.3-1.2 1.7-2.2 3.3-2.2 3.6 0 .3-1.7 3.6-3.9 7.4-2.1 3.7-5.3 9.5-7.1 12.8-1.8 3.3-3.8 6.8-4.4 7.7-.6 1-3.1 2.2-5.6 2.8-5.9 1.4-7.5 1.8-7.5 2 0 .1-1 .3-2.3.6-1.3.2-6 1.6-10.5 3.1s-8.6 2.8-9.2 2.9c-1.9.3-19 7.6-26 10.9-6.4 3.1-9.1 3.2-6.7.2 1-1.3 3-4.7 8.4-14.7 1.8-3.3 3.8-6.9 4.3-7.8 2.8-4.5 5.9-10.8 5.7-11.5-.1-.4.2-.7.8-.7.5 0 1.8-1.9 2.9-4.3 1.1-2.3 3.4-6.7 5.2-9.7 1.7-3 4.7-8.4 6.7-12 2-3.6 4.8-8.7 6.4-11.3 1.5-2.6 2.8-5 2.8-5.2 0-.2 2.3-4.2 5-9 2.8-4.8 5-8.9 5-9.1 0-.3.7-1.5 1.5-2.8 1.4-2.2 2-2.2 14.3-2.1 8.5.1 14.5.8 18.2 1.9zm233 58.7c-5.9 14.1-10.5 25-12.5 29.4-.8 1.7-1.9 4.4-2.5 6-1.6 4.3-10.9 26.4-12.8 30.5-.9 1.9-1.5 3.8-1.4 4.2.1.5-.3.8-1 .8-.6 0-.8.3-.5.6.4.4 0 1.9-.7 3.3-.8 1.4-2.6 5.5-4.1 9.1-1.5 3.6-3.2 7.8-3.9 9.5-.7 1.6-2.6 6.1-4.1 9.8l-2.9 6.9-1.5-4c-.9-2.2-2.1-4.6-2.6-5.3-.6-.8-2.2-3.4-3.5-5.9-1.3-2.5-3.4-6-4.7-7.9l-2.3-3.4 2.2-3.6c1.2-2 2.7-4.1 3.3-4.8.7-.6 2.7-3.5 4.6-6.5 1.8-2.9 3.6-5.5 3.9-5.8.3-.3 2.9-4.1 5.9-8.5 3-4.4 9.5-14 14.5-21.3 5-7.3 9.6-14 10.1-14.9.6-.9 1.5-2.4 2.2-3.2 2-2.6 9.1-13 14.1-20.7 2.6-4 4.8-7.1 5-6.9.2.2-2 5.8-4.8 12.6zm-535.7-10.4c-.3 1-.9 2.2-1.3 2.8-.4.5-1.1 2.1-1.5 3.5-.4 1.4-2.1 5.4-3.7 9-3.3 7.3-3.8 8.5-9.8 22.5-2.4 5.5-4.6 10.4-5 11-.4.5-1 2.3-1.4 4-.4 1.6-1.4 3.7-2.1 4.5-.7.8-1.4 1.9-1.5 2.5-.3 2.9-1.3 5.5-2.1 5.5-.5 0-.8.3-.7.7.1.9-.6 3.1-3.4 9.2-1 2.4-2.8 6.7-3.9 9.5-1.2 2.8-2.4 5.5-2.9 6.1-.4.5-1.1 2.1-1.5 3.5-.4 1.4-2.1 5.4-3.7 9-3.3 7-5 11.3-4.8 11.8 0 .1-.8 1.9-1.9 4-1 2-4.9 10.7-8.6 19.2l-6.6 15.6h-20.4c-11.3 0-20.5-.2-20.5-.4 0-.5 14.3-21.5 15.1-22.2.3-.3 1.4-2 2.4-3.8 1.1-1.7 2.3-3.2 2.7-3.2.4 0 .8-.7.8-1.5s.4-1.5.9-1.5 1.4-1.4 2.1-3c.7-1.7 1.6-3 2.1-3 .4 0 1-.8 1.3-1.8.4-1 1.4-2.7 2.4-3.8.9-1 4.6-6.2 8.2-11.4 3.5-5.2 6.8-9.7 7.2-9.8.4-.2.8-.8.8-1.3s2.5-4.4 5.5-8.6c3-4.3 5.9-8.5 6.5-9.3.6-.8 3.4-4.9 6.3-9s8.2-11.8 11.8-17c3.6-5.2 9.2-13.3 12.5-18 3.2-4.7 6.4-9.1 7-9.8.7-.6 1.6-2.1 1.9-3.2.3-1.1 1-2 1.5-2 .4 0 1.5-1.6 2.4-3.5.9-1.9 2.1-3.5 2.6-3.5.6 0 1-.6 1-1.3 0-1.1 1.9-3.7 2.7-3.7.1 0 0 .8-.4 1.7zM952 559.5c-3.3 5.9-6 11.1-6 11.6s-.4.9-1 .9c-.5 0-1 .4-1 1 0 .5-4.1 8.3-9.1 17.2-5 9-10.9 19.7-13.1 23.8-2.3 4.1-4.7 8.2-5.4 9.1-.8.8-1.4 1.9-1.4 2.2 0 .4-3.8 7.5-8.5 15.8s-8.5 15.5-8.5 16-.4.9-1 .9c-.5 0-1 .9-1 2s-.4 2-.8 2c-.5 0-1.4 1.2-2.1 2.7-4.1 8.9-23.6 34.3-26.4 34.3-.5 0-2.3 1.1-4 2.4-1.8 1.3-4.3 2.7-5.7 3.1-1.4.4-3 1.1-3.5 1.6-.6.4-2.4 1-4 1.3-1.7.3-4.1.8-5.5 1.2-1.4.3-9 .8-16.9 1.1l-14.3.6 1.2-2.4c.7-1.3 4.4-7.9 8.2-14.6 3.7-6.8 6.8-12.7 6.8-13.2s.4-1.1.8-1.3c.5-.2 3-4.4 5.7-9.3 2.7-5 5.7-10.4 6.7-12 .9-1.7 3-5.5 4.5-8.5s3.2-5.9 3.6-6.5c1.5-1.9 9.5-16.5 9-16.5-.2 0 .3-.7 1.1-1.6.9-.8 1.6-2.1 1.6-2.9 0-.7.3-1.5.8-1.7.4-.2 1.5-1.9 2.6-3.8 8.9-16.7 14.4-25.9 16.7-28 3.4-3.2 5.7-5 6.3-5 .2 0 4.1-2.3 8.6-5.1s8.9-5.3 9.8-5.6c1-.4 1.9-1 2.2-1.4.6-.8 30.4-15.9 31.5-15.9.4 0 2.1-.7 3.8-1.5 4.8-2.1 13.2-5.3 13.5-5 .1.1-2.5 5-5.8 11zm204.9 48.1c2.7 5.5 5.5 12.5 6.6 16.4.2.8.8 3 1.4 4.7.5 1.8.9 3.4.8 3.4-.8.7-32.7.3-32.7-.3 0-.9 2.8-5.5 4.5-7.4.5-.7 4.4-6.2 8.5-12.2 4.1-6.1 7.5-11 7.7-10.9.1.1 1.5 3 3.2 6.3zm168.1 73.5c0 .6.7 1.7 1.5 2.5 1.8 1.8 1.4 2.5-4 8.9-7.5 9-22.2 21.5-25.2 21.5-.7 0-1.3.5-1.3 1.2 0 .6-.3.8-.7.5-.3-.4-1.6 0-2.9.8-1.2.8-3.4 1.6-4.8 1.9-1.4.3-3 .7-3.6 1.1-1.9 1.1-1-2.3 2-8.2 4.1-7.9 12.6-16.7 22.2-23 2.4-1.5 4.5-3.1 4.6-3.6.2-.4 1.2-.7 2.3-.7 1 0 1.9-.4 1.9-.9 0-.9 4.4-2.9 6.8-3 .6-.1 1.2.4 1.2 1zm-715.6 5.7c.5.1.4.8-.2 1.4-.6.7-1.1 1.7-1.2 2.3-.1.5-.7 2.3-1.5 4-.7 1.6-1.8 4.3-2.3 6-1.1 3-6 15.1-8.6 21-.7 1.6-1.9 4.5-2.6 6.3l-1.3 3.3-8.1-.6c-8.5-.5-13.4-1.1-17.6-2-1.4-.4-3.5-.8-4.8-1.1-3.3-.7-16.7-5.1-20.5-6.8-1.8-.7-4.7-1.9-6.4-2.6-1.8-.7-3.3-1.4-3.3-1.6 0-.4 6.3-9.7 7-10.4.3-.3 3.6-4.8 7.3-10l6.8-9.5 28.2.1c15.5 0 28.6.2 29.1.2zm722 16.1c-1.2 8.3-5 13.3-14.9 20.1-2.7 1.9-5.4 3.8-6 4.2-.5.5-4.1 3-8 5.8-3.8 2.7-7.4 5.3-8 5.7-.5.4-2.9 2.1-5.3 3.6-6.2 4-7.4 2.6-8.6-10.6-.4-3.9 0-4.3 3.9-5 8.8-1.5 19-6.4 27.5-13.2 4.2-3.3 18-17.8 18.1-18.9 0-.6.5.2 1 1.8.4 1.7.6 4.6.3 6.5zm-226 105.8c-.8 2.7-2.1 7.3-3 10.3-.8 3-1.9 6.4-2.4 7.5-.8 1.6-1.7 4.8-3.5 11.5-.1.3-1.1 3.6-2.3 7.5-1.2 3.8-2.1 7.2-2.1 7.5.1.3-.6 2.3-1.4 4.5-.9 2.2-3 8.7-4.7 14.5-1.8 5.8-3.9 12.5-4.7 15-.8 2.5-1.6 5.3-1.8 6.2-.2.9-2.1 7-4.1 13.5-2.1 6.5-3.9 12.2-4 12.8-.1.5-1.9 6.4-3.9 13s-4.1 13.6-4.7 15.5c-.5 1.9-1.2 4.2-1.5 5-.3.8-.7 1.9-.8 2.5-.2.5-1.3 3.9-2.5 7.5s-2.4 7.3-2.6 8.3c-.1 1-1.7 6.4-3.5 12-8.9 28.9-8.6 27.9-8.8 28.9-.1.4-.8 2.5-1.6 4.7-.7 2.2-1.1 4.2-.8 4.5.4.3.1.6-.5.6-.7 0-1.1.3-1 .8.2.4-1 5.1-2.7 10.4l-2.9 9.7-11.6 4.2c-6.3 2.2-12.3 4.2-13.4 4.4-1 .3-2.3.8-3 1.3-.6.4-3.6 1.6-6.6 2.6-3 1-6.9 2.4-8.7 3.2-1.7.8-3.6 1.4-4.2 1.4-.6 0-3.6 1.1-6.8 2.6-3.2 1.4-6 2.5-6.3 2.5-1-.1-7.5 2.2-8.5 3-.6.4-1.7.4-2.4 0-.9-.6-1-1-.2-1.5.6-.4.9-1.2.6-1.7-.4-.5-.8-5.7-1-11.6-.3-6-.7-15.8-1-21.8-.6-12.2-1.4-29.9-1.9-44.7-.2-5.3-.7-10.1-1-10.7-.4-.5-.2-1.2.4-1.6.6-.4.7-1.1.4-1.7-.4-.6-.7-3.3-.8-6 0-4.5.6-5.7 7.2-15.1 4-5.6 11.1-15.6 15.8-22.2 4.7-6.6 9.2-12.9 10-14 1.4-2 26-36.6 44.3-62.5 5.2-7.4 9.9-13.7 10.3-13.8.4-.2.8-.8.8-1.4 0-.6 1.6-3 3.5-5.4 1.9-2.3 3.5-4.7 3.5-5.2 0-.8 2.2-2.3 4-2.6.3-.1 1-.4 1.5-.7 1.3-.8 7.8-2.3 8.8-2.1.4.1.7-.3.7-.8 0-.6.7-1 1.6-1 1.4 0 11.8-4.1 22.6-9 2.6-1.1 5.1-2 5.4-2 .4.1 1-.2 1.3-.7.4-.6 6.2-3.7 7.8-4.2.1-.1-.5 2-1.3 4.6zm-151.7 56.7c-8.8 12.1-17 23.4-18.1 25-1.2 1.7-2.7 3.7-3.3 4.5-1.1 1.3-18.3 25.4-22.5 31.4-.7 1.1-2 2.7-2.8 3.7-.8 1.1-4.4 6-7.9 10.9-3.6 5-6.6 9-6.7 8.8-.2-.1 1.1-4.5 2.7-9.7 1.7-5.2 3.2-10.2 3.4-11 .2-.8 3.8-12.3 8-25.5 4.1-13.2 7.7-24.7 7.9-25.5.1-.8.6-2.2.9-3 1.2-3.2 4.7-14.5 4.7-15.3 0-.4.7-2.3 1.5-4.3s1.2-4 .9-4.5c-.3-.5.3-.9 1.3-1 1 0 2.7-.2 3.8-.4 1.1-.3 4.2-.7 6.9-1 2.7-.3 5.2-.8 5.5-.9.3-.2 3.1-.7 6.1-1.1 3-.3 7.1-1 9-1.4 1.9-.4 4.5-.7 5.8-.6 1.2.1 2.2-.1 2.2-.4 0-.3 1.5-.7 3.4-.7l3.4-.1-16.1 22.1zM841 875.7c-1 2.7-1.8 5.2-1.9 5.8-.1 1.1-1.9 7.1-2.8 9.5-.3.8-.7 1.9-.8 2.5-.4 1.5-5.6 17.8-6.2 19.5-.3.8-.7 2-.8 2.5-.2.6-1.7 5.7-3.5 11.5-1.9 5.7-3.3 11-3.3 11.7 0 .7-.4 1.3-.9 1.3-.4 0-.8.8-.8 1.8 0 .9-.9 4.1-1.9 7-1.1 2.9-1.9 5.5-2 5.8 0 .2-1.1 3.9-2.4 8.2-4.5 13.7-12.9 40.4-13.2 42.1-.2.9-1.6 4.9-3 8.9-1.4 4.1-2.5 8-2.5 8.8 0 .8-.4 2.2-.9 3.2-1 1.7-3.8 10.2-4.6 13.6-.3 1.1-1.8 6.1-3.5 11.1s-3.2 10.1-3.5 11.3c-.2 1.2-.8 2.8-1.2 3.7-1.1 2-2.9.7-13.2-9.5-8.1-8-11.1-11.5-11.1-12.8 0-.5-.8-1.7-1.8-2.8-3-3.2-8.9-17-10.7-24.9-2.9-12.4-2.7-31.8.4-42.3.5-1.7.7-3.2.4-3.2-.3 0 0-.7.7-1.5s1-1.5.7-1.5c-.3 0 1-3.9 2.9-8.7 5-12.8 12.1-24.6 23-38.3 7.3-9.2 22-22.1 34.9-30.7 7.6-5.1 32.5-18.2 34.7-18.3.3 0-.2 2.1-1.2 4.7zm472 54c12.1 4.2 16.9 5.7 31.5 9.9 9.7 2.7 13.3 3.6 15.3 3.7 1.3 0 1.7 2.9.5 4.1-.4.3-.8 1.3-.9 2-.2 1.6-.8 3.5-3.8 13.6-1.3 4.1-3.1 10.2-4.1 13.5-.9 3.3-3 10.3-4.6 15.5-1.5 5.2-4.4 14.9-6.4 21.5s-3.8 12.8-4 13.7c-.2.9-1.8 6.2-3.5 11.7-1.7 5.5-3.3 10.7-3.4 11.5-.1.9-.5 1.9-.9 2.2-.4.4-.7 1.7-.7 2.9s-.3 2.5-.7 2.9c-.4.3-.8 1.2-.9 1.9-.1.7-.9 3.5-1.7 6.4-.8 2.8-1.2 5.4-.9 5.8.4.4-1.8-.7-4.8-2.4-5.3-3-36.1-18.3-40.7-20.2-5.9-2.4-9.6-3.8-11.3-4.4-.3-.1-1.8-.7-3.5-1.4-1.6-.7-5.7-2.1-9-3.3-3.3-1.1-6.3-2.3-6.7-2.6-.4-.4.2-3.4 1.3-6.7 1.1-3.3 2.1-6.7 2.2-7.5.1-.8.5-2 .9-2.5.3-.6.9-2.6 1.4-4.5 1-4.2.9-4.1 1.7-6 .5-1.2 3.5-11.2 4.3-14.3.1-.4.2-.8.4-1 .1-.1.3-.9.5-1.7.9-4.2 8.1-27.9 10.1-33.3.8-2 1.3-3.8 1.2-4 0-.1.7-2.9 1.7-6.2.9-3.3 1.8-6.5 1.9-7 .2-.6 1.5-5.1 3-10 1.6-5 3.3-10.6 3.9-12.6l1.1-3.6 9 4.2c5 2.3 14.3 6 20.6 8.2zm123.3 40.4c17.5 8.9 35.6 24.4 45.1 38.7 2.6 4 4.9 7.8 5 8.5.1.6.8 2.3 1.6 3.7.8 1.4 1.5 2.7 1.6 3 0 .3.3 1.2.7 2 3 7.8 4.7 15.9 4.9 23.5.6 24.1-10.5 41.9-32.6 52.5-13 6.2-21.5 8.2-35.6 8.4-11.6.2-38-4.9-38-7.3 0-.5.7-2.7 1.5-5 .8-2.2 1.2-4.1.9-4.1-.2 0 0-.8.5-1.8.6-1.1 1.2-3 1.5-4.3.3-1.3 1.9-6.9 3.6-12.4 1.7-5.5 3.5-11.4 3.9-13 .5-1.7 2.3-7.7 4-13.5 1.8-5.8 3.4-11.2 3.6-12.1.4-1.7 5.4-18.7 8.1-27.4.9-2.8 1.8-5.9 2.1-7 .6-2.9.7-3.2 3.2-11.5 1.3-4.1 2.3-7.6 2.3-7.7-.1-.2.5-2.1 1.3-4.3.8-2.2 1.2-4 .8-4-.3 0 0-.6.6-1.3.6-.8 1.3-2.4 1.5-3.8.6-3.1.5-2.9 1.1-2.9.3 0 3.4 1.4 6.8 3.1zm-548.4 36.1c-.1 5 1.1 62.6 1.5 74 .1 4.3 0 7.8-.3 7.9-.3 0-1.7.3-3.1.5-3.6.6-36.3 1.3-37.1.8-.4-.2.1-2.8 1.1-5.6 1-2.9 3.9-12.1 6.5-20.3 2.5-8.3 6.2-19.9 8.1-25.8 1.9-6 3.4-11.5 3.4-12.2 0-1.4 7.6-10.9 14.7-18.5 1.8-1.9 3.3-3.8 3.3-4.3 0-.4.4-.7 1-.7.5 0 .9 1.9.9 4.2zm251.6 49.9c1.6-.6 16.4-.7 26.2-.2 2.1.1 2.3 1.6.5 6.1-.3.8-.6 1.7-.7 2-2.3 9.4-11.3 30.4-15.6 36.6-9.1 13.3-18.5 18.6-33 18.8-15.8.2-22.3-5.9-22.2-20.8 0-6 .9-16.1 1.3-16.1.1 0 .3-.7.5-1.5l2-8c.8-3.6 1.8-7.3 2-8.3.9-4.2 1.7-5.7 2.8-5.8.7 0 1.9-.2 2.7-.4 2.5-.4 15.2-1.7 20.8-2 2.9-.2 5.6-.5 5.9-.8.3-.3 1.5-.2 2.6.2 1.2.5 3.1.5 4.2.2z"/></svg>