<?xml version="1.0" standalone="no"?>
<!DOCTYPE svg PUBLIC "-//W3C//DTD SVG 20010904//EN"
 "http://www.w3.org/TR/2001/REC-SVG-20010904/DTD/svg10.dtd">
<svg version="1.0" xmlns="http://www.w3.org/2000/svg"
 width="1536.000000pt" height="1536.000000pt" viewBox="0 0 1536.000000 1536.000000"
 preserveAspectRatio="xMidYMid meet">
<metadata>
Created by potrace 1.14, written by Peter Selinger 2001-2017
</metadata>
<g transform="translate(0.000000,1536.000000) scale(0.100000,-0.100000)"
fill="#000000" stroke="none">
<path d="M2898 11755 c-2 -2 -34 -6 -72 -10 -38 -3 -73 -8 -77 -11 -4 -2 -27
-6 -50 -9 -24 -3 -60 -10 -79 -15 -19 -5 -38 -10 -42 -10 -14 -1 -212 -72
-258 -92 -78 -34 -115 -53 -122 -63 -4 -5 -8 -7 -8 -2 0 9 -138 -76 -230 -141
-185 -132 -385 -340 -515 -537 -22 -33 -43 -61 -47 -63 -5 -2 -8 -7 -8 -11 0
-8 -80 -151 -97 -173 -25 -34 -105 -234 -128 -323 -27 -100 -35 -230 -20 -315
3 -19 7 -44 9 -55 11 -64 38 -147 67 -211 l22 -46 -44 -43 c-194 -187 -311
-375 -326 -525 l-5 -55 23 20 c13 11 29 25 35 30 6 6 20 16 30 23 11 7 53 36
94 65 90 64 177 117 189 117 5 0 11 3 13 8 2 4 26 17 53 30 28 13 58 28 68 33
23 12 17 18 60 -61 37 -67 85 -197 96 -260 13 -76 5 -204 -18 -277 -12 -40
-27 -75 -32 -78 -5 -4 -9 -13 -9 -21 0 -15 -84 -169 -104 -190 -6 -6 -20 -25
-31 -40 -39 -55 -121 -130 -167 -151 -117 -56 -244 -37 -286 42 -8 16 -11 150
-3 150 2 0 4 9 6 19 8 43 60 186 67 186 4 0 8 7 8 16 0 16 105 232 121 249 18
18 9 25 -28 21 -107 -12 -178 -22 -178 -26 0 0 -18 -3 -40 -5 -22 -2 -56 -7
-75 -10 -19 -3 -53 -8 -75 -10 -22 -2 -51 -6 -65 -9 -14 -3 -47 -7 -75 -11
-27 -3 -79 -11 -115 -16 -36 -6 -79 -12 -96 -13 -17 -2 -36 -6 -43 -10 -12 -8
-161 -305 -161 -322 0 -5 -7 -21 -14 -36 -21 -40 -72 -192 -91 -273 -21 -85
-28 -244 -14 -304 15 -67 53 -142 91 -182 36 -36 128 -99 150 -103 7 -1 18 -4
23 -8 13 -8 130 -38 169 -44 121 -16 316 -25 316 -14 0 3 14 5 31 4 35 -1 161
17 216 30 53 13 69 17 92 22 14 3 29 8 35 12 6 3 17 7 25 8 90 14 474 223 588
320 12 11 36 30 54 44 45 35 245 235 294 294 54 66 197 276 188 276 -5 0 -3 4
3 8 6 4 20 27 33 52 12 25 26 52 31 60 8 13 44 90 81 175 14 32 32 79 34 90 2
6 8 30 15 55 13 48 16 62 29 128 9 45 7 222 -3 282 -7 42 -14 73 -16 80 -1 3
-2 8 -2 11 1 7 -32 115 -43 143 -8 17 -4 18 71 12 136 -11 183 -20 374 -71 85
-23 266 -106 388 -177 114 -67 114 -67 99 -83 -7 -7 -39 -43 -72 -80 -33 -37
-69 -77 -80 -89 -11 -12 -49 -55 -85 -96 -36 -41 -75 -84 -87 -97 -31 -35
-142 -159 -163 -183 -10 -11 -53 -59 -96 -107 -44 -47 -87 -95 -97 -107 -10
-12 -45 -50 -77 -86 -32 -36 -68 -76 -80 -90 -12 -14 -52 -59 -90 -100 -123
-135 -130 -145 -143 -172 -6 -16 -15 -28 -19 -28 -5 0 -8 -5 -8 -11 0 -5 -26
-56 -59 -112 -32 -56 -70 -122 -84 -147 -14 -25 -45 -81 -70 -125 -25 -44 -44
-82 -42 -84 4 -3 1738 -5 1808 -2 10 1 21 9 24 19 4 9 16 33 28 52 12 19 38
64 57 100 20 36 81 146 137 244 56 99 98 182 95 185 -3 3 -218 7 -477 7 -260
1 -477 2 -483 3 -7 0 7 21 30 45 22 24 73 79 111 122 39 43 79 88 90 100 11
12 43 48 70 79 28 31 64 71 80 90 17 18 62 68 100 111 39 43 87 96 107 118 21
23 38 44 38 49 0 25 44 -6 138 -97 336 -328 443 -429 554 -524 l47 -40 -55
-73 c-30 -41 -61 -81 -67 -89 -7 -8 -23 -31 -37 -50 -13 -19 -27 -37 -30 -40
-3 -3 -30 -39 -60 -80 -29 -41 -58 -79 -62 -85 -5 -5 -25 -32 -46 -60 -20 -27
-45 -59 -54 -69 -10 -11 -18 -23 -18 -26 0 -4 -11 -20 -25 -36 -14 -16 -25
-32 -25 -36 0 -5 -1 -11 -2 -15 -2 -3 177 -7 397 -7 449 -1 405 -9 466 80 37
54 122 169 144 196 14 17 18 16 72 -11 178 -89 436 -165 581 -170 24 -1 31 -4
25 -13 -19 -30 -31 -78 -19 -79 15 -1 756 -1 779 0 9 1 17 9 17 19 0 10 9 37
20 60 11 22 20 48 20 56 0 8 4 17 9 20 4 3 14 25 20 48 12 42 16 45 114 92 56
27 113 57 127 66 14 10 28 18 33 19 4 0 32 16 62 36 31 19 57 35 60 35 5 0
165 109 186 126 25 22 33 16 15 -11 -9 -14 -13 -25 -9 -25 5 0 4 -4 -2 -8 -5
-4 -15 -16 -21 -27 -6 -11 -24 -42 -39 -70 -67 -118 -96 -172 -113 -205 -9
-19 -20 -37 -23 -40 -14 -13 -100 -182 -95 -188 9 -8 1054 -5 1196 3 63 4 126
8 140 9 14 0 30 4 35 7 6 4 17 5 26 4 9 -2 38 1 65 6 27 5 65 12 84 15 45 8
65 12 65 14 0 1 11 3 25 5 23 3 110 28 150 42 8 4 22 7 31 9 25 5 177 72 243
107 191 100 396 273 552 462 27 33 52 62 55 65 3 3 25 32 49 65 24 33 47 62
50 65 4 3 9 10 11 15 2 6 38 62 80 125 41 63 79 122 82 130 4 8 16 29 27 45
10 17 25 41 33 55 36 67 82 148 99 175 10 17 21 37 25 45 4 8 24 44 44 80 20
36 50 90 67 120 16 30 62 114 102 185 41 72 80 144 88 160 9 17 24 41 34 54
10 13 15 27 12 32 -3 5 0 9 5 9 6 0 11 6 11 14 0 7 7 19 15 26 8 7 12 16 9 21
-3 5 -2 9 3 9 4 0 28 39 53 86 l44 85 36 -6 c19 -4 49 -9 65 -12 53 -9 258
-80 330 -115 134 -65 138 -67 120 -84 -8 -9 -29 -37 -47 -62 -18 -26 -40 -56
-50 -66 -10 -11 -18 -23 -18 -27 0 -4 -6 -14 -13 -21 -7 -7 -76 -98 -152 -203
-77 -104 -161 -219 -188 -255 -27 -36 -55 -74 -63 -85 -8 -11 -60 -81 -115
-155 -55 -74 -105 -144 -111 -155 -6 -11 -16 -25 -22 -31 -6 -6 -32 -39 -56
-73 -25 -34 -83 -113 -130 -176 -47 -63 -104 -140 -127 -172 -60 -83 -150
-206 -160 -218 -5 -5 -24 -32 -43 -60 -19 -27 -38 -52 -41 -55 -3 -3 -51 -68
-107 -145 -56 -77 -107 -146 -113 -153 -5 -7 -8 -16 -5 -20 4 -7 803 -9 810
-1 2 2 40 56 85 119 45 63 88 122 95 130 7 9 15 24 19 33 3 9 11 17 17 17 5 0
10 4 10 10 0 10 248 364 275 391 8 9 15 21 15 27 0 7 4 12 8 12 4 0 16 14 27
32 10 18 29 44 41 58 l23 25 283 -1 c156 -1 284 -2 285 -3 2 -1 -42 -113 -63
-158 -8 -17 -14 -34 -14 -38 0 -4 -6 -21 -14 -38 -8 -18 -38 -90 -66 -162 -28
-71 -60 -149 -70 -172 -11 -24 -20 -49 -20 -57 0 -7 -16 -27 -36 -42 -20 -16
-48 -39 -63 -51 -14 -13 -29 -23 -33 -23 -4 0 -13 -6 -20 -13 -47 -45 -269
-167 -408 -224 -79 -32 -112 -44 -120 -45 -3 0 -14 -5 -25 -11 -13 -8 -100
-12 -259 -13 -205 -1 -241 -3 -250 -16 -68 -97 -100 -137 -106 -133 -4 3 -32
0 -61 -6 -30 -6 -70 -12 -89 -14 -19 -2 -46 -6 -60 -9 -13 -3 -42 -8 -65 -11
-22 -3 -69 -11 -105 -16 -86 -14 -95 -15 -167 -24 -64 -8 -67 -6 -50 35 3 8
13 40 22 70 9 30 21 67 27 82 5 15 8 30 5 35 -4 6 -656 10 -723 4 -6 -1 -35
-79 -64 -173 -58 -189 -78 -243 -86 -235 -8 8 -241 -75 -327 -116 -40 -19 -82
-37 -94 -41 -13 -4 -23 -12 -23 -17 0 -5 -5 -9 -12 -9 -11 0 -169 -89 -178
-101 -3 -3 -15 -11 -27 -17 -70 -38 -314 -262 -382 -352 -14 -19 -33 -42 -41
-51 -59 -68 -213 -328 -227 -384 -1 -5 -16 -48 -33 -95 -18 -47 -33 -92 -35
-100 -39 -169 -48 -239 -48 -365 -1 -364 168 -694 480 -935 48 -37 83 -60 92
-60 14 0 32 -36 23 -45 -4 -3 -7 -10 -8 -13 0 -4 -3 -14 -7 -22 -3 -8 -19 -62
-37 -120 -17 -58 -35 -116 -41 -130 -5 -14 -11 -34 -14 -45 -2 -11 -18 -63
-35 -115 -18 -52 -40 -122 -50 -155 -10 -33 -21 -68 -25 -77 -6 -15 22 -16
369 -17 l375 0 27 87 c14 48 39 125 54 172 15 47 37 119 50 161 l22 76 42 -6
c54 -8 378 -7 436 0 l45 6 3 -191 c2 -105 4 -216 5 -246 l2 -55 375 0 374 0
-1 60 c-1 33 -4 110 -7 170 -3 61 -8 171 -11 245 -3 74 -7 147 -9 162 -2 14 0
31 3 36 5 8 128 57 166 66 10 3 40 14 100 39 17 6 32 12 35 13 3 0 14 4 25 9
56 23 171 65 178 65 4 0 26 9 47 19 l40 19 0 -21 c0 -12 -5 -40 -10 -62 -26
-118 -30 -333 -6 -450 10 -48 58 -151 90 -189 60 -72 73 -86 85 -86 6 0 11 -4
11 -8 0 -24 205 -107 293 -118 23 -3 65 -9 92 -12 110 -15 440 -7 528 13 12 3
34 7 48 9 58 9 188 50 249 78 64 29 194 103 216 123 6 5 26 21 43 35 101 79
212 210 288 337 83 140 203 399 203 437 0 8 6 16 13 19 13 4 176 -50 192 -64
5 -5 15 -9 22 -9 18 0 262 -119 398 -194 61 -33 113 -61 117 -61 22 0 32 -26
21 -58 -13 -36 -36 -122 -33 -122 1 0 -5 -18 -13 -40 -9 -22 -25 -71 -36 -110
-11 -38 -38 -130 -60 -204 -22 -74 -38 -138 -35 -142 2 -5 170 -8 373 -8 l368
0 13 42 c8 23 14 44 15 47 16 60 27 98 32 110 3 8 8 21 10 28 7 27 10 39 23
85 10 38 16 47 29 42 38 -16 105 -34 109 -30 3 2 12 0 21 -4 52 -28 346 -46
458 -29 32 4 73 11 92 13 73 11 239 65 269 88 6 5 12 6 12 1 0 -5 4 -4 8 1 4
6 25 19 47 30 22 11 44 26 48 32 4 7 13 13 19 13 30 0 177 141 231 223 41 62
90 157 81 157 -4 0 -2 6 4 13 14 16 53 157 47 168 -3 4 -1 10 4 13 5 3 7 72 6
153 -3 154 -5 169 -25 243 -7 25 -14 52 -15 60 -2 8 -4 16 -5 18 -2 1 -3 5 -4
10 -7 34 -64 162 -94 211 -150 246 -371 439 -668 581 l-71 34 28 88 c15 49 27
91 28 93 0 7 48 171 61 212 6 18 13 40 15 50 2 10 20 70 40 133 19 63 37 122
40 130 30 104 36 127 39 140 3 13 42 15 279 15 l277 0 14 42 c8 23 12 44 8 47
-3 3 -1 6 4 6 5 0 10 8 11 18 1 13 49 191 68 250 3 7 4 13 4 15 -1 1 6 20 14
42 9 22 19 54 23 70 4 17 9 35 10 40 2 6 5 19 6 29 3 18 -19 19 -915 19 -589
0 -921 -3 -928 -10 -5 -5 -18 -38 -28 -74 -11 -35 -31 -102 -46 -149 -14 -47
-28 -94 -30 -105 -3 -11 -19 -64 -36 -118 -17 -54 -28 -104 -26 -110 3 -9 78
-12 276 -11 156 0 271 -4 271 -9 0 -5 -14 -54 -31 -109 -17 -54 -32 -105 -33
-111 -1 -7 -13 -43 -25 -82 -12 -38 -24 -79 -27 -90 -2 -11 -20 -71 -39 -133
-31 -98 -38 -111 -53 -103 -9 5 -79 25 -156 46 -76 20 -146 40 -155 44 -9 5
-50 19 -91 32 -98 30 -317 121 -348 145 -2 1 4 29 13 61 10 32 18 63 20 68 1
6 5 17 8 25 5 12 35 114 43 143 1 4 2 8 4 10 1 1 3 9 5 17 1 8 11 42 21 75 10
33 19 62 19 65 1 3 5 12 8 20 3 8 13 42 22 75 9 33 20 71 25 85 11 31 51 167
54 183 2 7 6 19 9 27 20 54 26 84 18 89 -7 5 -652 6 -707 2 -7 -1 -22 -34 -34
-73 -13 -40 -29 -89 -36 -108 -13 -34 -14 -33 -12 40 1 76 21 185 37 204 5 6
10 14 10 18 4 27 16 39 32 35 14 -4 19 0 19 16 0 12 5 39 11 60 l10 37 25 -29
25 -30 52 37 c29 20 54 40 55 44 2 5 8 8 13 8 6 0 15 5 22 10 13 12 102 76
137 100 12 8 37 26 55 40 18 14 43 32 55 40 13 8 35 25 50 37 15 13 31 23 34
23 3 0 37 24 75 53 39 28 102 75 141 102 109 76 150 129 165 216 17 92 -4 160
-86 279 -33 47 -59 90 -59 95 0 6 52 42 116 80 63 39 132 80 152 93 97 60 132
71 212 68 41 -2 87 -7 102 -11 20 -5 27 -3 31 12 11 34 17 133 10 134 -5 0
-17 2 -28 5 -119 22 -225 21 -272 -3 -53 -27 -135 -74 -147 -85 -28 -23 -259
-158 -272 -158 -8 0 -14 6 -14 14 0 39 -39 21 -208 -100 -97 -69 -188 -134
-202 -145 -14 -11 -43 -32 -65 -47 -114 -77 -204 -161 -274 -256 -93 -126
-199 -342 -241 -491 -28 -98 -29 -109 -19 -115 5 -3 3 -17 -4 -30 -11 -22 -37
-101 -38 -115 0 -2 -5 -19 -10 -37 -22 -74 -31 -295 -15 -373 3 -16 8 -43 11
-60 10 -56 13 -70 35 -135 12 -36 41 -104 64 -152 l43 -86 -43 -141 c-24 -78
-46 -146 -49 -152 -4 -5 -8 -20 -10 -32 -1 -12 -26 -98 -55 -192 -69 -227 -90
-296 -95 -320 -3 -11 -9 -31 -14 -45 -12 -30 -102 -328 -106 -352 -2 -9 -8
-25 -14 -36 -5 -10 -12 -29 -14 -43 -2 -13 -7 -31 -10 -39 -3 -8 -16 -49 -28
-90 -30 -99 -28 -92 -32 -115 -4 -19 -10 -20 -88 -16 -120 6 -358 6 -466 -1
-66 -4 -91 -2 -88 6 2 6 27 83 56 171 29 88 54 162 54 165 1 3 4 12 7 20 4 8
13 40 22 70 9 30 21 64 26 75 8 19 230 689 235 710 1 6 5 17 8 25 3 8 18 53
32 100 15 47 30 92 34 100 4 8 31 89 60 180 29 91 55 172 58 180 83 236 169
510 160 511 -7 0 -148 1 -314 1 -167 1 -303 5 -303 10 0 4 4 8 9 8 10 0 101
71 156 123 42 40 95 73 95 60 0 -6 360 -9 426 -4 7 1 22 27 34 59 12 31 26 66
31 77 4 11 22 58 39 105 18 47 37 99 43 115 7 17 12 32 13 35 0 3 6 19 13 35
6 17 19 50 27 75 9 25 20 54 24 65 5 11 41 106 79 212 39 105 76 204 82 220 7
15 14 37 16 48 2 11 8 24 13 29 6 6 10 16 10 24 0 8 6 28 14 45 8 18 33 82 55
142 22 61 47 127 55 147 9 21 17 41 17 45 1 5 5 17 9 28 4 11 19 52 33 90 14
39 38 102 52 140 15 39 28 75 29 80 2 6 8 23 14 38 7 16 12 30 12 31 0 2 8 21
17 42 9 22 18 45 19 52 2 11 77 215 119 322 22 58 28 75 29 82 1 3 4 10 9 14
4 4 7 17 7 29 0 11 4 25 9 30 10 12 94 235 94 253 0 6 5 12 10 12 6 0 7 3 4 7
-4 3 -3 11 2 17 4 6 16 36 26 66 10 30 23 69 30 85 14 33 71 185 105 285 13
36 27 70 31 76 5 6 10 19 12 30 4 19 12 42 27 79 12 28 91 238 94 250 2 6 6
19 10 30 5 11 23 61 41 110 18 50 49 133 69 185 19 52 37 102 38 110 3 12 -64
14 -487 15 l-490 1 -24 -36 c-14 -19 -30 -40 -35 -46 -6 -6 -18 -21 -26 -33
-8 -13 -94 -129 -190 -260 -96 -131 -184 -251 -195 -266 -11 -15 -29 -39 -40
-54 -12 -14 -84 -111 -160 -216 -76 -104 -143 -194 -147 -200 -9 -11 -54 -72
-198 -270 -52 -71 -97 -132 -100 -135 -12 -12 -60 -79 -60 -85 0 -3 -11 -17
-24 -30 l-24 -23 -34 23 c-44 30 -172 95 -187 95 -6 0 -11 3 -11 8 0 4 -17 12
-37 19 -21 6 -51 17 -68 23 -16 6 -31 11 -33 11 -1 -1 -16 6 -32 14 -17 9 -30
13 -30 11 0 -3 -18 1 -40 9 -22 8 -44 15 -48 15 -26 3 -52 14 -52 21 0 5 11
27 24 48 45 71 164 305 209 411 214 505 166 743 -175 870 -49 18 -67 22 -138
36 -14 2 -36 7 -50 10 -26 7 -31 7 -175 19 -49 4 -344 8 -654 9 l-563 1 -40
-70 c-21 -38 -43 -77 -48 -85 -4 -8 -86 -154 -181 -325 -95 -170 -175 -312
-178 -315 -3 -3 -20 -32 -37 -65 -63 -119 -69 -130 -76 -135 -4 -3 -12 -17
-17 -30 -6 -14 -15 -32 -21 -40 -5 -8 -30 -52 -55 -98 -71 -128 -91 -163 -207
-370 -60 -107 -120 -215 -134 -240 -14 -26 -43 -78 -65 -117 -22 -38 -43 -78
-46 -87 -3 -10 -9 -18 -14 -18 -5 0 -9 -4 -9 -9 0 -5 -30 -62 -66 -127 -37
-66 -78 -139 -92 -164 -14 -25 -45 -81 -70 -125 -25 -44 -61 -109 -80 -145
-19 -36 -43 -77 -54 -92 -10 -14 -18 -33 -18 -42 0 -9 -3 -16 -7 -16 -5 0 -21
-13 -38 -28 -16 -15 -52 -45 -80 -67 -27 -22 -57 -48 -66 -57 -9 -10 -19 -18
-23 -18 -4 0 -17 -9 -29 -21 -12 -11 -69 -57 -127 -102 -58 -45 -110 -86 -117
-92 -7 -5 -19 -16 -27 -22 -8 -7 -20 -13 -26 -13 -5 0 -10 -4 -10 -8 0 -7 -86
-69 -148 -107 -9 -5 -21 -13 -26 -18 -10 -7 -27 -18 -108 -69 l-27 -18 17 48
c9 26 20 49 25 50 4 2 7 10 7 18 0 8 16 56 36 106 20 51 49 129 66 173 16 44
34 89 39 100 5 11 33 85 63 165 30 80 60 159 67 175 7 17 13 32 13 35 2 10 96
257 114 300 6 14 25 66 43 115 18 50 36 95 40 101 5 6 10 19 12 30 2 10 11 36
20 58 9 21 17 40 17 42 0 1 5 15 12 31 6 15 12 31 13 36 2 4 4 9 5 12 1 3 3 8
4 13 1 7 17 49 41 107 7 17 23 57 35 90 12 33 29 78 38 100 10 21 17 42 18 45
0 3 4 14 8 25 5 11 33 85 63 165 30 80 70 184 89 232 19 49 34 91 34 94 0 3 6
20 14 37 7 18 19 46 25 62 6 17 16 44 22 60 7 17 13 35 15 40 6 20 145 381
154 400 5 11 17 40 25 65 39 110 54 149 68 176 9 17 12 35 9 40 -8 11 -960 13
-978 2 -6 -4 -40 -47 -75 -95 -72 -100 -69 -96 -109 -143 -16 -19 -30 -40 -30
-47 0 -6 -4 -13 -8 -15 -5 -1 -42 -48 -83 -103 -40 -55 -76 -102 -79 -105 -4
-3 -22 -27 -41 -55 -18 -27 -36 -52 -39 -55 -3 -3 -21 -26 -40 -53 -19 -26
-69 -92 -110 -147 -41 -54 -128 -170 -193 -258 -64 -87 -124 -167 -132 -178
-9 -10 -33 -44 -55 -74 -22 -30 -49 -66 -60 -80 -11 -14 -83 -110 -160 -215
-78 -104 -146 -197 -153 -205 -7 -8 -37 -49 -67 -90 -30 -41 -57 -77 -60 -80
-3 -3 -24 -30 -45 -60 -22 -30 -45 -62 -52 -70 -10 -12 -109 -146 -191 -258
-18 -25 -32 -44 -69 -90 -12 -15 -76 -101 -143 -192 -139 -187 -157 -211 -168
-225 -4 -5 -28 -37 -52 -70 -24 -33 -47 -61 -52 -63 -4 -2 -8 -9 -8 -16 0 -6
-8 -19 -17 -28 -10 -9 -26 -28 -36 -42 l-19 -27 -36 32 c-72 62 -280 259 -468
445 l-192 189 32 30 c17 17 54 56 81 88 28 32 68 78 90 101 22 24 63 70 92
103 29 33 65 73 80 90 15 17 60 66 98 109 39 43 93 103 120 134 28 31 81 90
119 133 38 43 78 88 90 100 12 13 53 59 91 102 39 44 82 92 96 107 15 16 53
59 85 95 33 37 68 77 79 89 11 12 47 52 80 89 33 37 76 85 95 106 19 20 58 63
85 95 28 31 61 69 75 84 58 64 159 178 191 215 19 22 46 52 62 67 15 15 27 32
27 37 0 5 4 11 8 13 10 4 122 205 122 218 0 6 3 10 8 10 4 0 12 10 18 23 23
49 59 112 67 115 4 2 7 8 7 12 0 5 13 32 30 60 16 27 26 51 22 51 -4 1 -400 2
-880 3 l-873 1 -91 -160 c-50 -88 -102 -180 -116 -205 -14 -25 -49 -87 -79
-139 -30 -52 -50 -97 -45 -100 6 -3 209 -6 451 -5 243 0 440 -3 439 -7 -3 -6
-65 -76 -168 -189 -14 -15 -47 -53 -75 -84 -27 -32 -61 -69 -75 -84 -20 -21
-109 -121 -195 -218 -5 -6 -44 -48 -85 -94 -41 -45 -86 -96 -100 -113 -14 -16
-43 -49 -65 -72 -22 -24 -61 -67 -87 -97 -26 -30 -60 -68 -75 -84 -15 -17 -59
-66 -98 -109 -38 -44 -83 -94 -100 -112 -16 -18 -52 -58 -80 -89 -27 -31 -66
-74 -85 -95 l-35 -39 -50 32 c-27 18 -52 35 -55 38 -8 8 -42 29 -70 42 -14 7
-27 15 -30 19 -9 11 -297 149 -312 149 -8 0 -18 3 -22 7 -15 15 -224 77 -300
89 -21 3 -48 8 -60 10 -60 13 -126 18 -271 18 l-160 1 -48 93 c-27 51 -50 100
-52 110 -2 9 -10 33 -19 54 -34 79 -48 198 -32 267 12 52 47 149 61 167 8 10
15 27 15 37 0 9 5 17 10 17 6 0 10 5 10 11 0 14 55 94 94 138 117 129 202 182
301 187 86 5 131 -13 139 -56 1 -3 4 -9 7 -15 7 -14 -1 -74 -19 -131 -13 -42
-89 -205 -133 -285 -57 -104 -57 -102 -2 -94 27 3 68 8 93 11 25 2 79 9 120
14 41 5 95 12 120 14 98 11 218 26 250 31 14 2 52 7 84 10 32 3 64 7 70 8 6 1
19 18 30 37 37 69 73 145 80 168 4 12 11 22 15 22 4 0 7 8 8 18 1 9 18 54 37
100 20 45 33 82 29 82 -3 0 -1 6 5 13 10 12 27 68 36 122 3 17 8 41 11 55 4
14 8 66 10 116 4 73 1 103 -15 148 -50 148 -147 220 -345 262 -31 6 -341 15
-347 9z m7112 -699 c80 -24 98 -42 106 -110 4 -30 -52 -209 -67 -214 -5 -2 -9
-12 -9 -22 0 -9 -7 -23 -15 -30 -8 -7 -14 -18 -13 -24 2 -6 -7 -25 -20 -43
-12 -17 -22 -33 -22 -36 0 -3 -17 -36 -39 -74 -21 -37 -53 -95 -71 -128 -18
-33 -38 -68 -44 -77 -6 -10 -31 -22 -56 -28 -59 -14 -75 -18 -75 -20 0 -1 -10
-3 -23 -6 -13 -2 -60 -16 -105 -31 -45 -15 -86 -28 -92 -29 -19 -3 -190 -76
-260 -109 -64 -31 -91 -32 -67 -2 10 13 30 47 84 147 18 33 38 69 43 78 28 45
59 108 57 115 -1 4 2 7 8 7 5 0 18 19 29 43 11 23 34 67 52 97 17 30 47 84 67
120 20 36 48 87 64 113 15 26 28 50 28 52 0 2 23 42 50 90 28 48 50 89 50 91
0 3 7 15 15 28 14 22 20 22 143 21 85 -1 145 -8 182 -19z m2330 -587 c-59
-141 -105 -250 -125 -294 -8 -17 -19 -44 -25 -60 -16 -43 -109 -264 -128 -305
-9 -19 -15 -38 -14 -42 1 -5 -3 -8 -10 -8 -6 0 -8 -3 -5 -6 4 -4 0 -19 -7 -33
-8 -14 -26 -55 -41 -91 -15 -36 -32 -78 -39 -95 -7 -16 -26 -61 -41 -98 l-29
-69 -15 40 c-9 22 -21 46 -26 53 -6 8 -22 34 -35 59 -13 25 -34 60 -47 79
l-23 34 22 36 c12 20 27 41 33 48 7 6 27 35 46 65 18 29 36 55 39 58 3 3 29
41 59 85 30 44 95 140 145 213 50 73 96 140 101 149 6 9 15 24 22 32 20 26 91
130 141 207 26 40 48 71 50 69 2 -2 -20 -58 -48 -126z m-5357 104 c-3 -10 -9
-22 -13 -28 -4 -5 -11 -21 -15 -35 -4 -14 -21 -54 -37 -90 -33 -73 -38 -85
-98 -225 -24 -55 -46 -104 -50 -110 -4 -5 -10 -23 -14 -40 -4 -16 -14 -37 -21
-45 -7 -8 -14 -19 -15 -25 -3 -29 -13 -55 -21 -55 -5 0 -8 -3 -7 -7 1 -9 -6
-31 -34 -92 -10 -24 -28 -67 -39 -95 -12 -28 -24 -55 -29 -61 -4 -5 -11 -21
-15 -35 -4 -14 -21 -54 -37 -90 -33 -70 -50 -113 -48 -118 0 -1 -8 -19 -19
-40 -10 -20 -49 -107 -86 -192 l-66 -156 -204 0 c-113 0 -205 2 -205 4 0 5
143 215 151 222 3 3 14 20 24 38 11 17 23 32 27 32 4 0 8 7 8 15 0 8 4 15 9
15 5 0 14 14 21 30 7 17 16 30 21 30 4 0 10 8 13 18 4 10 14 27 24 38 9 10 46
62 82 114 35 52 68 97 72 98 4 2 8 8 8 13 0 5 25 44 55 86 30 43 59 85 65 93
6 8 34 49 63 90 29 41 82 118 118 170 36 52 92 133 125 180 32 47 64 91 70 98
7 6 16 21 19 32 3 11 10 20 15 20 4 0 15 16 24 35 9 19 21 35 26 35 6 0 10 6
10 13 0 11 19 37 27 37 1 0 0 -8 -4 -17z m2537 -808 c-33 -59 -60 -111 -60
-116 0 -5 -4 -9 -10 -9 -5 0 -10 -4 -10 -10 0 -5 -41 -83 -91 -172 -50 -90
-109 -197 -131 -238 -23 -41 -47 -82 -54 -91 -8 -8 -14 -19 -14 -22 0 -4 -38
-75 -85 -158 -47 -83 -85 -155 -85 -160 0 -5 -4 -9 -10 -9 -5 0 -10 -9 -10
-20 0 -11 -4 -20 -8 -20 -5 0 -14 -12 -21 -27 -41 -89 -236 -343 -264 -343 -5
0 -23 -11 -40 -24 -18 -13 -43 -27 -57 -31 -14 -4 -30 -11 -35 -16 -6 -4 -24
-10 -40 -13 -17 -3 -41 -8 -55 -12 -14 -3 -90 -8 -169 -11 l-143 -6 12 24 c7
13 44 79 82 146 37 68 68 127 68 132 0 5 4 11 8 13 5 2 30 44 57 93 27 50 57
104 67 120 9 17 30 55 45 85 15 30 32 59 36 65 15 19 95 165 90 165 -2 0 3 7
11 16 9 8 16 21 16 29 0 7 3 15 8 17 4 2 15 19 26 38 89 167 144 259 167 280
34 32 57 50 63 50 2 0 41 23 86 51 45 28 89 53 98 56 10 4 19 10 22 14 6 8
304 159 315 159 4 0 21 7 38 15 48 21 132 53 135 50 1 -1 -25 -50 -58 -110z
m2049 -481 c27 -55 55 -125 66 -164 2 -8 8 -30 14 -47 5 -18 9 -34 8 -34 -8
-7 -327 -3 -327 3 0 9 28 55 45 74 5 7 44 62 85 122 41 61 75 110 77 109 1 -1
15 -30 32 -63z m1681 -735 c0 -6 7 -17 15 -25 18 -18 14 -25 -40 -89 -75 -90
-222 -215 -252 -215 -7 0 -13 -5 -13 -12 0 -6 -3 -8 -7 -5 -3 4 -16 0 -29 -8
-12 -8 -34 -16 -48 -19 -14 -3 -30 -7 -36 -11 -19 -11 -10 23 20 82 41 79 126
167 222 230 24 15 45 31 46 36 2 4 12 7 23 7 10 0 19 4 19 9 0 9 44 29 68 30
6 1 12 -4 12 -10z m-7156 -57 c5 -1 4 -8 -2 -14 -6 -7 -11 -17 -12 -23 -1 -5
-7 -23 -15 -40 -7 -16 -18 -43 -23 -60 -11 -30 -60 -151 -86 -210 -7 -16 -19
-45 -26 -63 l-13 -33 -81 6 c-85 5 -134 11 -176 20 -14 4 -35 8 -48 11 -33 7
-167 51 -205 68 -18 7 -47 19 -64 26 -18 7 -33 14 -33 16 0 4 63 97 70 104 3
3 36 48 73 100 l68 95 282 -1 c155 0 286 -2 291 -2z m7220 -161 c-12 -83 -50
-133 -149 -201 -27 -19 -54 -38 -60 -42 -5 -5 -41 -30 -80 -58 -38 -27 -74
-53 -80 -57 -5 -4 -29 -21 -53 -36 -62 -40 -74 -26 -86 106 -4 39 0 43 39 50
88 15 190 64 275 132 42 33 180 178 181 189 0 6 5 -2 10 -18 4 -17 6 -46 3
-65z m-2260 -1058 c-8 -27 -21 -73 -30 -103 -8 -30 -19 -64 -24 -75 -8 -16
-17 -48 -35 -115 -1 -3 -11 -36 -23 -75 -12 -38 -21 -72 -21 -75 1 -3 -6 -23
-14 -45 -9 -22 -30 -87 -47 -145 -18 -58 -39 -125 -47 -150 -8 -25 -16 -53
-18 -62 -2 -9 -21 -70 -41 -135 -21 -65 -39 -122 -40 -128 -1 -5 -19 -64 -39
-130 -20 -66 -41 -136 -47 -155 -5 -19 -12 -42 -15 -50 -3 -8 -7 -19 -8 -25
-2 -5 -13 -39 -25 -75 -12 -36 -24 -73 -26 -83 -1 -10 -17 -64 -35 -120 -89
-289 -86 -279 -88 -289 -1 -4 -8 -25 -16 -47 -7 -22 -11 -42 -8 -45 4 -3 1 -6
-5 -6 -7 0 -11 -3 -10 -8 2 -4 -10 -51 -27 -104 l-29 -97 -116 -42 c-63 -22
-123 -42 -134 -44 -10 -3 -23 -8 -30 -13 -6 -4 -36 -16 -66 -26 -30 -10 -69
-24 -87 -32 -17 -8 -36 -14 -42 -14 -6 0 -36 -11 -68 -26 -32 -14 -60 -25 -63
-25 -10 1 -75 -22 -85 -30 -6 -4 -17 -4 -24 0 -9 6 -10 10 -2 15 6 4 9 12 6
17 -4 5 -8 57 -10 116 -3 60 -7 158 -10 218 -6 122 -14 299 -19 447 -2 53 -7
101 -10 107 -4 5 -2 12 4 16 6 4 7 11 4 17 -4 6 -7 33 -8 60 0 45 6 57 72 151
40 56 111 156 158 222 47 66 92 129 100 140 14 20 260 366 443 625 52 74 99
137 103 138 4 2 8 8 8 14 0 6 16 30 35 54 19 23 35 47 35 52 0 8 22 23 40 26
3 1 10 4 15 7 13 8 78 23 88 21 4 -1 7 3 7 8 0 6 7 10 16 10 14 0 118 41 226
90 26 11 51 20 54 20 4 -1 10 2 13 7 4 6 62 37 78 42 1 1 -5 -20 -13 -46z
m-1517 -567 c-88 -121 -170 -234 -181 -250 -12 -17 -27 -37 -33 -45 -11 -13
-183 -254 -225 -314 -7 -11 -20 -27 -28 -37 -8 -11 -44 -60 -79 -109 -36 -50
-66 -90 -67 -88 -2 1 11 45 27 97 17 52 32 102 34 110 2 8 38 123 80 255 41
132 77 247 79 255 1 8 6 22 9 30 12 32 47 145 47 153 0 4 7 23 15 43 8 20 12
40 9 45 -3 5 3 9 13 10 10 0 27 2 38 4 11 3 42 7 69 10 27 3 52 8 55 9 3 2 31
7 61 11 30 3 71 10 90 14 19 4 45 7 58 6 12 -1 22 1 22 4 0 3 15 7 34 7 l34 1
-161 -221z m-1127 -103 c-10 -27 -18 -52 -19 -58 -1 -11 -19 -71 -28 -95 -3
-8 -7 -19 -8 -25 -4 -15 -56 -178 -62 -195 -3 -8 -7 -20 -8 -25 -2 -6 -17 -57
-35 -115 -19 -57 -33 -110 -33 -117 0 -7 -4 -13 -9 -13 -4 0 -8 -8 -8 -18 0
-9 -9 -41 -19 -70 -11 -29 -19 -55 -20 -58 0 -2 -11 -39 -24 -82 -45 -137
-129 -404 -132 -421 -2 -9 -16 -49 -30 -89 -14 -41 -25 -80 -25 -88 0 -8 -4
-22 -9 -32 -10 -17 -38 -102 -46 -136 -3 -11 -18 -61 -35 -111 -17 -50 -32
-101 -35 -113 -2 -12 -8 -28 -12 -37 -11 -20 -29 -7 -132 95 -81 80 -111 115
-111 128 0 5 -8 17 -18 28 -30 32 -89 170 -107 249 -29 124 -27 318 4 423 5
17 7 32 4 32 -3 0 0 7 7 15 7 8 10 15 7 15 -3 0 10 39 29 87 50 128 121 246
230 383 73 92 220 221 349 307 76 51 325 182 347 183 3 0 -2 -21 -12 -47z
m4720 -540 c121 -42 169 -57 315 -99 97 -27 133 -36 153 -37 13 0 17 -29 5
-41 -4 -3 -8 -13 -9 -20 -2 -16 -8 -35 -38 -136 -13 -41 -31 -102 -41 -135 -9
-33 -30 -103 -46 -155 -15 -52 -44 -149 -64 -215 -20 -66 -38 -128 -40 -137
-2 -9 -18 -62 -35 -117 -17 -55 -33 -107 -34 -115 -1 -9 -5 -19 -9 -22 -4 -4
-7 -17 -7 -29 0 -12 -3 -25 -7 -29 -4 -3 -8 -12 -9 -19 -1 -7 -9 -35 -17 -64
-8 -28 -12 -54 -9 -58 4 -4 -18 7 -48 24 -53 30 -361 183 -407 202 -59 24 -96
38 -113 44 -3 1 -18 7 -35 14 -16 7 -57 21 -90 33 -33 11 -63 23 -67 26 -4 4
2 34 13 67 11 33 21 67 22 75 1 8 5 20 9 25 3 6 9 26 14 45 10 42 9 41 17 60
5 12 35 112 43 143 1 4 2 8 4 10 1 1 3 9 5 17 9 42 81 279 101 333 8 20 13 38
12 40 0 1 7 29 17 62 9 33 18 65 19 70 2 6 15 51 30 100 16 50 33 106 39 126
l11 36 90 -42 c50 -23 143 -60 206 -82z m1233 -404 c175 -89 356 -244 451
-387 26 -40 49 -78 50 -85 1 -6 8 -23 16 -37 8 -14 15 -27 16 -30 0 -3 3 -12
7 -20 30 -78 47 -159 49 -235 6 -241 -105 -419 -326 -525 -130 -62 -215 -82
-356 -84 -116 -2 -380 49 -380 73 0 5 7 27 15 50 8 22 12 41 9 41 -2 0 0 8 5
18 6 11 12 30 15 43 3 13 19 69 36 124 17 55 35 114 39 130 5 17 23 77 40 135
18 58 34 112 36 121 4 17 54 187 81 274 9 28 18 59 21 70 6 29 7 32 32 115 13
41 23 76 23 77 -1 2 5 21 13 43 8 22 12 40 8 40 -3 0 0 6 6 13 6 8 13 24 15
38 6 31 5 29 11 29 3 0 34 -14 68 -31z m-5484 -361 c-1 -50 11 -626 15 -740 1
-43 0 -78 -3 -79 -3 0 -17 -3 -31 -5 -36 -6 -363 -13 -371 -8 -4 2 1 28 11 56
10 29 39 121 65 203 25 83 62 199 81 258 19 60 34 115 34 122 0 14 76 109 147
185 18 19 33 38 33 43 0 4 4 7 10 7 5 0 9 -19 9 -42z m2516 -499 c16 6 164 7
262 2 21 -1 23 -16 5 -61 -3 -8 -6 -17 -7 -20 -23 -94 -113 -304 -156 -366
-91 -133 -185 -186 -330 -188 -158 -2 -223 59 -222 208 0 60 9 161 13 161 1 0
3 7 5 15 2 8 11 44 20 80 8 36 18 73 20 83 9 42 17 57 28 58 7 0 19 2 27 4 25
4 152 17 208 20 29 2 56 5 59 8 3 3 15 2 26 -2 12 -5 31 -5 42 -2z"/>
</g>
</svg>
