<svg width="375" height="112" viewBox="0 0 375 112" fill="none" xmlns="http://www.w3.org/2000/svg">
<path fill-rule="evenodd" clip-rule="evenodd" d="M0 0L22.1756 4.125C44.0203 8.25 88.3716 16.5 132.392 16.5C161.788 16.5 191.332 12.821 220.826 9.14822C235.499 7.32104 250.16 5.49539 264.784 4.125C308.804 0 353.155 0 375 0V32V33V90.9076C358.321 87.3011 324.962 80.5688 291.603 87.301C279.51 89.8287 267.418 94.1888 255.325 98.5489C234.059 106.217 212.793 113.885 191.526 111.585C168.129 109.224 144.731 94.9168 121.334 80.6093C111.372 74.5179 101.411 68.4266 91.4497 63.2571C58.833 46.3306 26.2163 39.2881 9.19037 35.6119C8.80299 35.5283 8.42368 35.4464 8.05262 35.3662L2.39219 33H0V0Z" fill="#66F4DB"/>
</svg>
